<svg width="12" height="24" viewBox="0 0 12 24" fill="none" xmlns="http://www.w3.org/2000/svg">
<path d="M10.0501 23.6667C9.80108 23.6675 9.55506 23.6126 9.3301 23.5058C9.10513 23.3991 8.90693 23.2434 8.75007 23.05L0.70007 13.05C0.454933 12.7518 0.320923 12.3777 0.320923 11.9917C0.320923 11.6056 0.454933 11.2315 0.70007 10.9333L9.0334 0.933325C9.3163 0.592964 9.72282 0.378923 10.1635 0.33829C10.6042 0.297657 11.043 0.433761 11.3834 0.716658C11.7238 0.999556 11.9378 1.40608 11.9784 1.84679C12.0191 2.2875 11.883 2.7263 11.6001 3.06666L4.15007 12L11.3501 20.9333C11.5539 21.178 11.6833 21.4759 11.7231 21.7918C11.7629 22.1077 11.7114 22.4284 11.5746 22.716C11.4379 23.0035 11.2216 23.2459 10.9514 23.4143C10.6813 23.5828 10.3685 23.6704 10.0501 23.6667Z" fill="#333333"/>
</svg>
