<svg width="13" height="24" viewBox="0 0 13 24" fill="none" xmlns="http://www.w3.org/2000/svg">
<path d="M2.66655 23.6667C2.27713 23.6674 1.89973 23.5318 1.59988 23.2833C1.43112 23.1434 1.29161 22.9716 1.18936 22.7777C1.08711 22.5838 1.02411 22.3716 1.00399 22.1533C0.983861 21.935 1.007 21.7149 1.07207 21.5055C1.13715 21.2962 1.24288 21.1017 1.38321 20.9333L8.84988 12L1.64988 3.05C1.51144 2.87952 1.40805 2.68336 1.34567 2.4728C1.28328 2.26223 1.26312 2.04141 1.28636 1.82303C1.30959 1.60465 1.37575 1.39301 1.48104 1.20029C1.58633 1.00756 1.72867 0.83754 1.89988 0.700002C2.07233 0.548275 2.27427 0.433829 2.49304 0.363847C2.71181 0.293866 2.94268 0.26986 3.17117 0.293334C3.39966 0.316809 3.62083 0.387259 3.8208 0.500262C4.02077 0.613265 4.19523 0.766381 4.33322 0.950003L12.3832 10.95C12.6284 11.2482 12.7624 11.6223 12.7624 12.0083C12.7624 12.3944 12.6284 12.7684 12.3832 13.0667L4.04988 23.0667C3.88269 23.2684 3.6703 23.4278 3.42995 23.5321C3.1896 23.6363 2.92806 23.6824 2.66655 23.6667Z" fill="#333333"/>
</svg>
