<svg width="100" height="100" viewBox="0 0 100 100" fill="none" xmlns="http://www.w3.org/2000/svg">
<circle cx="50" cy="50" r="50" fill="white"/>
<path d="M53.2084 40.6666C55.7857 40.6666 57.8751 38.5773 57.8751 36C57.8751 33.4227 55.7857 31.3333 53.2084 31.3333C50.6311 31.3333 48.5417 33.4227 48.5417 36C48.5417 38.5773 50.6311 40.6666 53.2084 40.6666Z" fill="#4F4F4F"/>
<path d="M57.98 59.6015C57.8511 59.5148 57.7061 59.4547 57.5537 59.4248C57.4012 59.3948 57.2443 59.3956 57.0922 59.4271C56.94 59.4586 56.7957 59.5202 56.6677 59.6083C56.5397 59.6963 56.4305 59.8091 56.3467 59.9399C55.2188 61.6101 53.8372 63.0941 52.2517 64.3382C51.8667 64.6299 50.4317 65.7382 49.825 65.5049C49.405 65.3765 49.65 64.5482 49.7317 64.1982L50.35 62.3665C50.6067 61.6199 55.075 48.3665 55.565 46.8499C56.2883 44.6332 55.9733 42.4515 52.6717 42.9765C51.7733 43.0699 42.6617 44.2482 42.4983 44.2599C42.3451 44.2698 42.1954 44.3099 42.0576 44.3777C41.9199 44.4455 41.7969 44.5398 41.6956 44.6552C41.5943 44.7706 41.5167 44.9048 41.4673 45.0501C41.4178 45.1955 41.3975 45.3492 41.4075 45.5024C41.4174 45.6556 41.4575 45.8053 41.5253 45.9431C41.5931 46.0808 41.6874 46.2038 41.8028 46.3051C41.9182 46.4064 42.0524 46.484 42.1978 46.5334C42.3431 46.5828 42.4968 46.6032 42.65 46.5932C42.65 46.5932 46.15 46.1382 46.535 46.1032C46.7322 46.0839 46.9308 46.1222 47.1067 46.2132C47.2827 46.3043 47.4285 46.4444 47.5267 46.6165C47.7381 47.27 47.7091 47.9775 47.445 48.6115C47.1417 49.7782 42.3467 63.2882 42.195 64.0699C42.0323 64.724 42.0775 65.4125 42.3242 66.0398C42.5709 66.667 43.007 67.2018 43.5717 67.5699C44.6316 68.2763 45.8936 68.6164 47.165 68.5382C48.4012 68.5231 49.6237 68.2778 50.77 67.8149C53.675 66.6482 56.7083 63.5449 58.3067 61.1065C58.4443 60.8588 58.487 60.5694 58.4269 60.2925C58.3668 60.0155 58.2079 59.7699 57.98 59.6015Z" fill="#4F4F4F"/>
</svg>
