<svg width="413" height="617" viewBox="0 0 413 617" fill="none" xmlns="http://www.w3.org/2000/svg">
<path fill-rule="evenodd" clip-rule="evenodd" d="M315.771 538.742C339.301 577.117 351.469 606.067 380.434 640.421C383.947 644.588 377.55 650.383 370.962 655.16C365.718 676.946 342.18 701.633 334.678 699.985C330.177 698.995 330.663 680.996 337.789 671.812C353.718 651.287 335.802 631.322 335.802 631.322C335.802 631.322 290.568 580.09 256.68 540.17C256.68 540.17 233.505 509.621 251.364 496.846C282.284 474.731 307.74 525.646 315.771 538.742Z" fill="#FFC999"/>
<path fill-rule="evenodd" clip-rule="evenodd" d="M232.228 268.451C232.228 268.451 244.591 239.854 252.256 212.164C259.243 186.914 261.592 163.712 245.803 158.605C225.977 152.191 217.872 187.996 212.391 205.751C208.447 218.53 202.698 245.956 200.791 260.515C197.749 283.739 227.058 288.071 232.228 268.451Z" fill="#FFC999"/>
<path fill-rule="evenodd" clip-rule="evenodd" d="M210.181 212.913C215.66 195.158 221.191 150.635 245.887 158.336C263.309 163.769 260.267 188.117 249.434 221.301L210.181 212.913Z" fill="#E4EBF7"/>
<path fill-rule="evenodd" clip-rule="evenodd" d="M290.634 511.787C295.703 447.591 286.412 394.377 286.412 394.377C286.412 394.377 265.293 344.54 240.798 379.172C228.935 395.945 232.352 438.723 243.333 509.675C243.333 509.675 245.444 543.039 269.94 541.35C290.444 539.937 290.634 511.787 290.634 511.787Z" fill="#FFC999"/>
<path fill-rule="evenodd" clip-rule="evenodd" d="M293.157 467.964C266.983 477.999 236.796 469.515 236.796 469.515C234.885 450.125 231.507 426.474 231.507 358.056C264.382 333.663 290.689 377.223 290.689 377.223L293.157 467.964Z" fill="#597EF7"/>
<path d="M292.309 456.056C292.232 455.755 291.925 455.574 291.624 455.652C275.617 459.776 259.783 460.081 245.799 458.127L244.655 457.961C243.355 457.765 242.176 457.56 241.127 457.355L240.345 457.197L239.899 457.102C239.692 457.056 239.553 457.024 239.484 457.007C239.183 456.934 238.878 457.119 238.805 457.421C238.732 457.723 238.917 458.027 239.219 458.101L239.657 458.2L240.365 458.35C240.538 458.386 240.72 458.422 240.912 458.459C242.28 458.726 243.863 458.993 245.643 459.242C259.762 461.214 275.74 460.906 291.905 456.741C292.206 456.664 292.387 456.357 292.309 456.056Z" fill="#253368"/>
<path d="M290.675 376.662C290.395 376.669 290.169 376.88 290.133 377.148L290.128 377.239L292.585 467.584L292.367 467.665C291.884 467.844 291.315 468.043 290.664 468.258C288.799 468.874 286.654 469.49 284.258 470.066C269.368 473.643 253.067 473.981 236.962 468.977C236.665 468.885 236.35 469.051 236.258 469.348C236.166 469.644 236.331 469.96 236.628 470.052C252.95 475.122 269.449 474.78 284.521 471.16C286.948 470.577 289.123 469.952 291.017 469.327L291.774 469.071C292.013 468.989 292.238 468.909 292.45 468.833L293.23 468.542C293.287 468.519 293.334 468.501 293.369 468.486C293.559 468.409 293.69 468.236 293.715 468.037L293.72 467.95L291.252 377.209C291.244 376.898 290.985 376.653 290.675 376.662Z" fill="#253368"/>
<path fill-rule="evenodd" clip-rule="evenodd" d="M311.904 563.746C303.591 613.366 293.097 646.758 291.628 696.901C291.451 702.984 282.672 703.269 274.437 702.555C255.649 717.252 221.053 721.165 216.502 714.333C213.769 710.232 226.383 695.302 238.02 692.668C264.031 686.778 264.064 656.853 264.064 656.853C264.064 656.853 264.712 580.597 266.245 522.165C266.245 522.165 269.502 479.445 291.699 481.533C330.127 485.149 314.742 546.81 311.904 563.746Z" fill="#FFC999"/>
<path fill-rule="evenodd" clip-rule="evenodd" d="M260.595 151.875C260.595 151.875 264.574 171.942 286.714 172.677C312.414 173.53 316.732 153.045 316.732 153.045L310.638 150.867C309.376 150.415 308.512 149.254 308.457 147.915C308.254 143.136 307.822 130.953 307.839 114.904C286.005 106.92 270.577 113.04 270.577 113.04C270.577 113.04 270.337 132.085 269.913 146.116C269.871 147.477 269.001 148.672 267.717 149.124C265.501 149.902 262.137 151.12 260.595 151.875Z" fill="#FFC999"/>
<path fill-rule="evenodd" clip-rule="evenodd" d="M316.953 101.781C316.953 101.781 321.218 71.1229 298.079 68.0479C270.131 64.3324 267.27 80.0659 264.821 87.3124C262.22 95.0104 257.136 127.919 273.395 136.44C280.347 139.545 284.664 141.321 297.581 135.308C316.377 126.555 316.953 101.781 316.953 101.781Z" fill="#FFC999"/>
<path fill-rule="evenodd" clip-rule="evenodd" d="M308.158 124.02L309.979 106.795C309.979 106.795 324.076 99.72 324.871 108.637C325.681 117.73 318.994 123.414 313.158 125.061C309.406 126.12 308.158 124.02 308.158 124.02Z" fill="#FFC999"/>
<path fill-rule="evenodd" clip-rule="evenodd" d="M310.285 63.8111C310.285 63.8111 296.629 52.8161 289.792 53.5331C282.954 54.2501 287.866 59.8736 287.866 59.8736C287.866 59.8736 269.452 55.2746 267.429 59.3471C265.402 63.4211 271.978 65.9306 271.978 65.9306C271.978 65.9306 253.317 69.6431 252.03 75.0476C250.746 80.4521 259.407 79.8836 259.407 79.8836C259.407 79.8836 252.316 87.2171 254.044 92.0186C255.774 96.8201 260.028 96.5996 260.028 96.5996L262.489 103.014L264.514 90.0431C264.514 90.0431 271.287 87.6956 283.831 82.7801C275.922 89.7656 280.455 90.1301 286.689 89.3681C293.994 88.4756 302.593 86.6291 302.184 86.3876C302.184 86.3876 301.719 94.8941 307.075 99.2141C313.644 104.509 307.92 113.902 309.709 114.471C313.149 115.597 313.432 106.015 320.304 104.877C325.599 104.883 326.965 98.4971 325.668 96.2021C332.692 95.7836 332.994 88.6046 324.513 81.7016C332.386 81.2801 328.126 73.7321 316.788 69.8471C321.408 57.2981 310.285 63.8111 310.285 63.8111Z" fill="#253368"/>
<path d="M298.6 96.9593C295.197 96.2205 291.748 95.8518 288.516 96.0559C288.15 96.079 287.789 96.1095 287.432 96.1476C287.084 96.1849 286.832 96.4976 286.869 96.846C286.906 97.1944 287.219 97.4467 287.567 97.4094C287.905 97.3733 288.248 97.3443 288.596 97.3223C291.695 97.1266 295.033 97.4834 298.331 98.1994C299.112 98.369 299.841 98.5486 300.506 98.7297L300.898 98.8385C301.356 98.9684 301.678 99.0687 301.845 99.1246C302.178 99.236 302.537 99.0568 302.649 98.7246C302.76 98.3923 302.581 98.0327 302.249 97.9214L301.981 97.836L301.447 97.6758L301.244 97.6177C300.452 97.393 299.564 97.1686 298.6 96.9593Z" fill="#253368"/>
<path d="M276.558 94.885C273.58 93.8694 270.244 93.6681 266.794 94.7947C266.461 94.9034 266.279 95.2616 266.388 95.5947C266.496 95.9279 266.855 96.1097 267.188 96.001C270.351 94.9682 273.412 95.153 276.148 96.0861C276.643 96.2548 277.083 96.4351 277.462 96.6144L277.694 96.7276C277.792 96.7772 277.862 96.8158 277.905 96.8405C278.207 97.0179 278.596 96.9167 278.773 96.6145C278.95 96.3123 278.849 95.9235 278.547 95.7461C278.445 95.6864 278.263 95.5892 278.005 95.4674C277.584 95.2681 277.1 95.0697 276.558 94.885Z" fill="#253368"/>
<path d="M278.655 96.9209L278.565 96.9333C278.295 96.993 278.114 97.2396 278.129 97.5071L278.142 97.5968L278.947 101.235L277.044 114.175C277.009 114.416 277.134 114.648 277.346 114.754L277.43 114.787L282.414 116.335C282.708 116.426 283.019 116.262 283.111 115.969C283.193 115.705 283.068 115.426 282.828 115.306L282.744 115.272L278.215 113.865L280.062 101.296L280.055 101.095L279.228 97.3565C279.169 97.0864 278.922 96.9059 278.655 96.9209Z" fill="#DD936F"/>
<path d="M297.61 105.399C295.471 104.108 292.896 103.923 290.093 105.534C289.734 105.741 289.61 106.199 289.816 106.558C290.023 106.918 290.481 107.041 290.84 106.835C293.138 105.515 295.137 105.658 296.835 106.683C297.123 106.857 297.375 107.042 297.589 107.227L297.715 107.339C297.767 107.387 297.803 107.423 297.822 107.444C298.101 107.75 298.575 107.773 298.881 107.494C299.187 107.215 299.209 106.74 298.93 106.434C298.68 106.16 298.236 105.777 297.61 105.399Z" fill="#253368"/>
<path d="M274.163 103.078C272.621 102.256 271.011 101.936 269.46 102.45C268.867 102.647 268.306 102.964 267.787 103.405C267.471 103.674 267.433 104.147 267.701 104.463C267.969 104.778 268.443 104.817 268.758 104.548C269.132 104.231 269.523 104.01 269.932 103.874C271.024 103.512 272.243 103.754 273.457 104.402C273.651 104.506 273.835 104.614 274.005 104.725L274.251 104.891C274.388 104.988 274.481 105.06 274.524 105.096C274.84 105.363 275.313 105.323 275.581 105.007C275.848 104.69 275.808 104.217 275.491 103.95C275.222 103.722 274.765 103.399 274.163 103.078Z" fill="#253368"/>
<path fill-rule="evenodd" clip-rule="evenodd" d="M290.245 119.281C290.245 119.281 282.158 120.46 274.672 118.723C274.672 118.723 276.346 123.474 281.69 123.859C288.436 124.347 290.245 119.281 290.245 119.281Z" fill="white"/>
<path d="M274.815 118.105C275.313 118.221 275.822 118.325 276.341 118.418C280.282 119.127 284.493 119.18 288.387 118.844L289.21 118.766C289.38 118.748 289.541 118.73 289.693 118.712L290.153 118.653C290.627 118.584 291.003 119.044 290.842 119.495C290.607 120.153 290.064 121.098 289.117 122.037C287.365 123.774 284.897 124.727 281.644 124.492C279.222 124.317 277.303 123.305 275.852 121.734C275.293 121.129 274.843 120.481 274.49 119.832C274.276 119.438 274.141 119.125 274.073 118.934C273.907 118.462 274.327 117.992 274.815 118.105ZM275.832 119.613L275.939 119.787C276.181 120.158 276.462 120.524 276.784 120.873C278.027 122.218 279.653 123.076 281.736 123.226C284.616 123.434 286.727 122.619 288.223 121.136L288.449 120.902C288.666 120.666 288.86 120.423 289.031 120.178L289.116 120.051L288.496 120.109C284.5 120.453 280.185 120.399 276.116 119.667L275.832 119.613Z" fill="#FF7A46"/>
<path d="M271.391 134.846C271.187 134.616 270.836 134.594 270.605 134.797C270.375 135 270.353 135.352 270.556 135.582L270.697 135.735C270.865 135.907 271.111 136.14 271.434 136.416C272.145 137.021 272.993 137.625 273.981 138.188C278.996 141.046 285.409 141.786 293.167 139.129C293.458 139.03 293.613 138.713 293.514 138.422C293.414 138.132 293.098 137.977 292.807 138.076C285.359 140.627 279.277 139.924 274.532 137.221C273.607 136.694 272.815 136.131 272.156 135.569C271.766 135.237 271.511 134.983 271.391 134.846Z" fill="#DD936F"/>
<path d="M280.249 127.093C279.942 127.077 279.681 127.313 279.665 127.62C279.651 127.896 279.841 128.136 280.103 128.192L280.193 128.204L284 128.398C284.307 128.413 284.568 128.177 284.584 127.87C284.598 127.594 284.408 127.354 284.146 127.298L284.056 127.286L280.249 127.093Z" fill="#DD936F"/>
<path d="M321.282 108.656C319.777 107.863 317.958 108.346 316.167 110.82L315.879 111.223C314.566 113.082 314.422 113.687 315.475 113.996L315.863 114.099C315.99 114.135 316.028 114.154 316.112 114.202C316.333 114.328 316.507 114.55 316.639 114.963C317.182 116.66 315.279 117.895 312.907 117.703C312.601 117.679 312.332 117.907 312.307 118.213C312.283 118.52 312.511 118.788 312.817 118.813C315.853 119.058 318.556 117.304 317.699 114.624C317.484 113.952 317.134 113.503 316.663 113.235C316.501 113.142 316.42 113.102 316.249 113.051L316.047 112.996L316.06 112.969C316.175 112.763 316.368 112.464 316.658 112.05L317.069 111.473C318.543 109.436 319.761 109.113 320.763 109.641C320.905 109.715 320.998 109.785 321.033 109.819C321.256 110.032 321.608 110.024 321.82 109.802C322.033 109.58 322.025 109.227 321.803 109.015C321.697 108.914 321.523 108.783 321.282 108.656Z" fill="#DD936F"/>
<path d="M308.412 123.525C308.139 123.385 307.803 123.493 307.663 123.766L307.49 124.094L307.138 124.737C307.096 124.813 307.052 124.891 307.007 124.971C306.494 125.878 305.944 126.785 305.378 127.629C304.745 128.573 304.133 129.377 303.562 129.998C303.096 130.503 302.668 130.873 302.295 131.089C302.029 131.244 301.938 131.584 302.092 131.85C302.246 132.116 302.587 132.207 302.853 132.053C303.337 131.772 303.845 131.333 304.38 130.752C304.996 130.084 305.64 129.236 306.302 128.249C306.885 127.379 307.45 126.448 307.976 125.519L308.238 125.049L308.653 124.274C308.794 124 308.686 123.665 308.412 123.525Z" fill="#DD936F"/>
<path fill-rule="evenodd" clip-rule="evenodd" d="M243.11 288.37C236.723 297.243 243.463 305.473 243.463 305.473C268.166 307.688 330.023 307.181 330.023 307.181C340.217 303.89 334.604 283.307 334.604 283.307C334.604 283.307 340.528 237.244 345.068 201.011C347.023 185.411 350.699 163.565 349.64 163.09C337.736 157.765 330.386 154.409 311.956 150.916C311.416 152.056 302.68 160.81 285.362 160.649C266.408 160.471 262.517 151.88 261.863 150.374C252.625 152.696 245.483 154.144 234.674 157.873C231.388 159.007 229.418 162.38 230.027 165.803L230.999 179.683C230.999 179.683 229.529 212.882 243.11 288.37Z" fill="#E4EBF7"/>
<path d="M312.522 159.057C312.353 158.797 312.004 158.724 311.744 158.893C298.013 167.838 283.653 168.337 270.448 163.82C268.908 163.293 267.512 162.733 266.276 162.17L265.82 161.959C265.444 161.782 265.106 161.616 264.808 161.462L264.592 161.349C264.386 161.241 264.248 161.164 264.18 161.125C263.911 160.969 263.567 161.061 263.411 161.329C263.256 161.598 263.347 161.942 263.616 162.098L263.836 162.221L264.067 162.344C264.43 162.536 264.855 162.748 265.34 162.977C266.723 163.628 268.311 164.278 270.084 164.884C283.59 169.504 298.302 168.993 312.358 159.836C312.618 159.666 312.692 159.318 312.522 159.057Z" fill="#A3B5D6"/>
<path d="M231.546 180.258C231.235 180.254 230.98 180.503 230.976 180.813L230.971 182.26C230.975 184.393 231.021 187.303 231.137 190.939L231.207 192.974C231.421 198.812 231.776 205.271 232.3 212.297L232.394 213.542C234.126 236.119 237.274 260.652 242.178 286.486L242.526 288.303L242.417 288.548C238.826 296.799 239.546 301.867 243.073 304.369L243.248 304.49C243.941 304.952 244.68 305.272 245.419 305.477C245.866 305.6 246.22 305.659 246.479 305.678L257.604 305.751L265.917 305.823C273.385 305.895 280.809 305.984 287.967 306.091L294.331 306.193C309.596 306.453 321.937 306.784 330.302 307.194C330.612 307.209 330.876 306.97 330.892 306.659C330.907 306.349 330.667 306.085 330.357 306.07L327.299 305.931C319.088 305.584 307.863 305.298 294.35 305.068L290.124 304.999C282.309 304.876 274.145 304.777 265.928 304.698L252.264 304.587L246.843 304.555L246.526 304.555C246.377 304.543 246.093 304.496 245.719 304.392C245.089 304.218 244.459 303.945 243.873 303.554C240.654 301.403 239.972 296.774 243.624 288.599C243.671 288.493 243.685 288.376 243.663 288.263C238.55 261.742 235.289 236.571 233.516 213.456C232.909 205.546 232.515 198.339 232.295 191.912L232.262 190.903C232.129 186.736 232.087 183.528 232.097 181.358L232.101 180.828C232.105 180.518 231.856 180.262 231.546 180.258Z" fill="#A3B5D6"/>
<path fill-rule="evenodd" clip-rule="evenodd" d="M346.117 376.744L294.565 396.74C294.565 396.74 281.473 400.276 271.835 396.185C257.83 390.242 242.143 380.593 231.408 369.752C231.296 334.273 242.86 314.285 242.86 314.285L331.535 316.1C331.535 316.1 348.041 330.566 346.117 376.744Z" fill="#597EF7"/>
<path fill-rule="evenodd" clip-rule="evenodd" d="M242.018 315.1L243.203 304.156L331.074 305.659L332.079 316.12C332.079 316.12 250.976 315.426 242.018 315.1Z" fill="#597EF7"/>
<path d="M290.059 316.477C289.75 316.442 289.472 316.664 289.437 316.973L288.9 321.821L288.771 323.002C288.372 326.681 287.973 330.457 287.591 334.199L287.186 338.222L286.655 343.69C285.854 352.162 285.343 358.703 285.211 362.629C285.095 366.041 282.714 368.722 278.761 370.748C277.315 371.489 275.762 372.085 274.208 372.55L273.575 372.731C273.371 372.787 273.174 372.839 272.985 372.886L272.365 373.032C272.271 373.053 272.199 373.068 272.151 373.077C271.845 373.136 271.646 373.43 271.704 373.735C271.763 374.041 272.058 374.24 272.363 374.182L272.709 374.108C272.786 374.091 272.872 374.071 272.968 374.048C273.44 373.936 273.965 373.796 274.53 373.627C276.146 373.145 277.761 372.524 279.274 371.749C283.552 369.557 286.203 366.572 286.335 362.667L286.384 361.452C286.584 357.156 287.135 350.424 287.956 341.907L288.305 338.333L288.427 337.11C288.8 333.395 289.193 329.614 289.591 325.897L290.554 317.099C290.589 316.791 290.368 316.512 290.059 316.477Z" fill="#253368"/>
<path d="M241.455 315.091C241.45 315.402 241.698 315.657 242.008 315.663L277.14 316.22L322.524 316.881C325.825 316.925 328.815 316.962 331.47 316.993C331.78 316.997 332.035 316.748 332.039 316.437C332.042 316.127 331.793 315.872 331.483 315.868L304.421 315.504L284.161 315.202L242.027 314.538C241.716 314.533 241.46 314.78 241.455 315.091Z" fill="#253368"/>
<path d="M319.695 318.212C319.387 318.248 319.165 318.527 319.201 318.835L319.237 319.119C319.26 319.288 319.288 319.477 319.32 319.685L319.353 319.9C319.486 320.737 319.659 321.67 319.876 322.673C320.498 325.542 321.351 328.412 322.474 331.095C324.993 337.113 328.489 341.327 333.156 342.895C333.45 342.994 333.769 342.835 333.868 342.541C333.967 342.246 333.808 341.927 333.514 341.828C329.216 340.384 325.918 336.409 323.512 330.661C322.418 328.047 321.584 325.242 320.976 322.435C320.799 321.617 320.652 320.847 320.532 320.14L320.412 319.384C320.365 319.072 320.334 318.842 320.319 318.706C320.287 318.429 320.057 318.222 319.787 318.209L319.695 318.212Z" fill="#253368"/>
<path d="M326.509 317.733C326.242 317.891 326.153 318.236 326.311 318.504L326.468 318.781C326.599 319.02 326.752 319.309 326.925 319.649C327.422 320.623 327.976 321.803 328.574 323.192C330.285 327.169 331.998 332.018 333.598 337.763C336.195 347.09 338.235 357.855 339.502 370.102C339.534 370.411 339.81 370.635 340.119 370.603C340.428 370.571 340.653 370.295 340.621 369.986C339.347 357.676 337.296 346.849 334.682 337.461C333.068 331.667 331.338 326.771 329.607 322.747C329.067 321.493 328.561 320.404 328.099 319.478L327.928 319.138C327.785 318.858 327.655 318.61 327.538 318.394L327.28 317.931C327.121 317.664 326.776 317.575 326.509 317.733Z" fill="#253368"/>
<path d="M247.941 315.04C247.635 314.986 247.343 315.19 247.289 315.496L247.193 316.001C247.167 316.136 247.135 316.292 247.099 316.466L246.925 317.274C246.801 317.83 246.661 318.424 246.505 319.047C245.837 321.717 245.011 324.386 244.021 326.874C241.676 332.769 238.793 336.69 235.428 337.732C235.131 337.824 234.965 338.139 235.057 338.436C235.149 338.732 235.464 338.898 235.761 338.806C239.549 337.633 242.605 333.477 245.067 327.29C246.077 324.751 246.917 322.035 247.597 319.32C247.795 318.529 247.967 317.784 248.115 317.099L248.28 316.302L248.397 315.691C248.451 315.385 248.247 315.094 247.941 315.04Z" fill="#253368"/>
<path fill-rule="evenodd" clip-rule="evenodd" d="M287.035 309.975C286.999 311.062 285.876 311.905 284.526 311.856C283.176 311.806 282.112 310.885 282.148 309.798C282.186 308.709 283.309 307.867 284.659 307.915C286.008 307.965 287.071 308.887 287.035 309.975Z" fill="#253368"/>
<path fill-rule="evenodd" clip-rule="evenodd" d="M151.613 289.117L251.536 290.056C255.335 290.091 258.082 286.438 256.994 282.798L235.927 212.374C235.217 210.004 233.048 208.372 230.576 208.35L130.652 207.41C126.854 207.375 124.106 211.029 125.195 214.669L146.263 285.093C146.971 287.461 149.141 289.093 151.613 289.117Z" fill="#A3B5D6"/>
<path fill-rule="evenodd" clip-rule="evenodd" d="M147.39 289.117L247.313 290.056C251.112 290.091 253.859 286.438 252.771 282.798L231.704 212.374C230.994 210.004 228.825 208.372 226.353 208.35L126.429 207.41C122.63 207.375 119.883 211.029 120.972 214.669L142.04 285.093C142.748 287.461 144.918 289.093 147.39 289.117Z" fill="#253368"/>
<path fill-rule="evenodd" clip-rule="evenodd" d="M143.249 258.324C143.249 258.324 130.375 252.849 127.358 254.393C122.684 256.788 129.652 264.951 129.652 264.951C129.652 264.951 126.554 269.307 131.161 273.045C131.221 278.381 134.663 279.618 134.663 279.618C134.663 279.618 133.322 284.21 138.296 285.585C143.272 286.961 151.72 282.723 148.049 277.14C150.254 272.394 146.05 270.162 146.05 270.162C146.05 270.162 147.353 265.956 143.215 263.883C145.213 261.437 144.587 258.908 143.249 258.324Z" fill="#FFC999"/>
<path d="M131.875 261.536C131.571 261.488 131.286 261.695 131.239 261.999C131.196 262.272 131.359 262.53 131.614 262.614L131.702 262.635L143.127 264.432C143.431 264.48 143.716 264.272 143.764 263.969C143.807 263.696 143.643 263.438 143.388 263.354L143.3 263.333L131.875 261.536Z" fill="#DD936F"/>
<path d="M145.996 269.608L136.022 270.568C135.717 270.597 135.492 270.869 135.522 271.175C135.548 271.45 135.771 271.659 136.039 271.677L136.129 271.676L146.103 270.716C146.409 270.686 146.633 270.414 146.603 270.108C146.577 269.833 146.354 269.624 146.087 269.606L145.996 269.608Z" fill="#DD936F"/>
<path d="M147.944 276.593L138.668 278.387C138.367 278.446 138.169 278.738 138.228 279.04C138.28 279.311 138.522 279.498 138.79 279.49L138.88 279.48L148.156 277.686C148.457 277.628 148.655 277.336 148.596 277.034C148.544 276.763 148.302 276.576 148.034 276.583L147.944 276.593Z" fill="#DD936F"/>
<path fill-rule="evenodd" clip-rule="evenodd" d="M389.182 262.152C389.182 262.152 383.591 231.501 374.596 204.214C366.395 179.334 355.471 158.731 339.502 163.245C319.451 168.915 332.582 203.196 337.879 221.008C341.69 233.826 352.133 259.83 358.627 273C368.986 294.006 395.77 281.341 389.182 262.152Z" fill="#FFC999"/>
<path fill-rule="evenodd" clip-rule="evenodd" d="M340.016 228.192C334.719 210.38 314.606 170.277 339.422 162.975C356.93 157.824 367.914 179.765 377.322 213.381L340.016 228.192Z" fill="#E4EBF7"/>
<path fill-rule="evenodd" clip-rule="evenodd" d="M269.756 295.123C269.756 295.123 349.742 296.643 377.699 287.779C393.332 282.823 395.619 260.469 376.799 255.69C361.352 251.767 267.347 274.144 267.347 274.144C267.347 274.144 258.068 274.785 258.902 285.742C259.766 297.112 269.756 295.123 269.756 295.123Z" fill="#FFC999"/>
<path fill-rule="evenodd" clip-rule="evenodd" d="M245.067 297.891C245.067 297.891 266.471 298.757 271.16 289.851C275.406 281.784 265.848 274.971 265.848 274.971C265.848 274.971 257.769 270.497 247.761 268.044C241.203 266.438 229.193 261.524 227.468 264.659C225.221 268.748 238.32 271.767 238.871 275.117C239.988 281.904 218.877 279.324 215.229 280.742C208.1 283.517 219.386 297.048 245.067 297.891Z" fill="#FFC999"/>
<path d="M215.573 283.834C215.278 283.747 214.969 283.916 214.882 284.211C214.796 284.506 214.965 284.815 215.259 284.902C215.982 285.114 216.722 285.302 217.478 285.467C222.566 286.573 227.977 286.574 233.051 285.912C233.643 285.835 234.188 285.753 234.681 285.67L235.04 285.608C235.392 285.546 235.639 285.497 235.771 285.468C236.071 285.403 236.262 285.106 236.197 284.806C236.131 284.506 235.835 284.315 235.535 284.38L235.148 284.457C235.059 284.474 234.958 284.492 234.845 284.513L234.126 284.633C233.748 284.693 233.341 284.752 232.907 284.808C227.949 285.455 222.659 285.455 217.715 284.379C216.985 284.22 216.27 284.039 215.573 283.834Z" fill="#DD936F"/>
<path d="M217.946 288.614C217.655 288.515 217.339 288.67 217.239 288.961C217.14 289.251 217.295 289.568 217.585 289.667L217.763 289.725C217.906 289.77 218.096 289.826 218.333 289.891L218.519 289.942C219.269 290.143 220.149 290.344 221.15 290.531C225.975 291.432 231.702 291.702 238.147 290.961C238.452 290.926 238.671 290.65 238.636 290.345C238.601 290.04 238.325 289.82 238.02 289.856C231.69 290.583 226.074 290.318 221.354 289.437C220.381 289.255 219.53 289.061 218.807 288.867L218.332 288.734C218.156 288.683 218.027 288.642 217.946 288.614Z" fill="#DD936F"/>
<path d="M226.716 293.694C226.412 293.652 226.13 293.864 226.088 294.168C226.045 294.473 226.257 294.754 226.561 294.797C232.368 295.611 237.046 295.707 240.534 295.381L241.186 295.313L241.556 295.265C241.731 295.241 241.85 295.222 241.914 295.21C242.217 295.155 242.417 294.865 242.362 294.562C242.306 294.26 242.016 294.06 241.714 294.115L241.491 294.15L241.403 294.163C241.133 294.2 240.808 294.238 240.431 294.273C237.028 294.591 232.436 294.496 226.716 293.694Z" fill="#DD936F"/>
<path d="M329.389 191.857C329.297 191.56 328.982 191.394 328.685 191.485C328.418 191.568 328.257 191.831 328.294 192.099L328.314 192.189L339.478 228.358C339.565 228.64 339.852 228.802 340.131 228.743L340.223 228.715L377.53 213.904C377.819 213.789 377.96 213.462 377.845 213.174C377.742 212.914 377.467 212.773 377.202 212.832L377.115 212.858L340.374 227.444L329.389 191.857Z" fill="#A3B5D6"/>
<path fill-rule="evenodd" clip-rule="evenodd" d="M319 502.481C331.583 446.336 331.112 453.056 334.481 406.572C334.481 406.572 312.407 351.309 283.238 400.941C277.954 409.934 276.056 431.598 267.844 489.863C267.844 489.863 265.532 522.876 281.548 527.36C313.223 536.231 319 502.481 319 502.481Z" fill="#FFC999"/>
<path fill-rule="evenodd" clip-rule="evenodd" d="M345.403 377.089C345.403 377.089 310.267 356.454 278.901 387.061C275.217 422.265 268.749 467.058 268.749 467.058C268.749 467.058 295.696 482.619 327.028 477.543C343.155 393.507 345.403 377.089 345.403 377.089Z" fill="#597EF7"/>
<path d="M339.166 370.603C338.859 370.555 338.572 370.765 338.524 371.071L337.613 376.792C336.612 382.992 335.283 390.988 333.676 400.504L330.143 421.261L327.564 436.264C326.541 442.199 325.498 448.227 324.451 454.264L320.557 476.628C320.503 476.934 320.708 477.226 321.014 477.279C321.32 477.333 321.612 477.128 321.665 476.822L324.661 459.63L328.673 436.455L333.04 410.982C336.059 393.252 338.336 379.568 339.635 371.245C339.683 370.938 339.473 370.65 339.166 370.603Z" fill="#253368"/>
<path d="M275.084 456.8C274.805 456.663 274.468 456.778 274.331 457.057C274.194 457.336 274.309 457.673 274.588 457.81L275.178 458.09L275.478 458.229C276.198 458.56 277.031 458.929 277.967 459.325C280.64 460.458 283.606 461.59 286.788 462.647C295.052 465.392 303.278 467.148 310.972 467.441C316.636 467.657 321.817 467.061 326.405 465.544C326.7 465.447 326.861 465.129 326.763 464.834C326.666 464.539 326.347 464.379 326.052 464.476C321.602 465.947 316.553 466.528 311.015 466.317C303.44 466.029 295.314 464.293 287.143 461.579C283.991 460.532 281.052 459.411 278.406 458.289L277.638 457.96C277.143 457.746 276.683 457.542 276.259 457.349L275.147 456.83C275.123 456.819 275.103 456.809 275.084 456.8Z" fill="#253368"/>
<path d="M263.297 374.021C263.047 373.837 262.695 373.891 262.511 374.142C262.348 374.364 262.373 374.667 262.556 374.861L262.632 374.928L275.049 384.032L268.188 467.011C268.172 467.205 268.257 467.39 268.408 467.505L268.489 467.556L269.327 467.977L269.545 468.084C270.399 468.5 271.387 468.964 272.498 469.464C275.67 470.89 279.188 472.316 282.957 473.646C292.557 477.035 302.102 479.23 311.031 479.661C316.881 479.943 322.294 479.449 327.18 478.084C327.479 478.001 327.654 477.69 327.57 477.391C327.486 477.092 327.176 476.917 326.877 477.001C322.116 478.33 316.822 478.814 311.085 478.537C302.28 478.112 292.837 475.941 283.332 472.586C279.593 471.266 276.104 469.852 272.959 468.438L272.047 468.023C271.606 467.82 271.188 467.624 270.794 467.437L269.624 466.869L269.341 466.727L276.196 383.812C276.209 383.649 276.152 383.491 276.041 383.375L275.968 383.312L263.297 374.021Z" fill="#253368"/>
<path d="M277.106 304.651C276.828 304.62 276.575 304.797 276.502 305.058L276.484 305.148L275.215 316.613L274.838 320.289L274.488 323.895C274.255 326.352 274.025 328.908 273.804 331.531L273.694 332.848C273.243 338.315 272.864 343.649 272.582 348.716L272.5 350.227C271.685 365.749 271.878 376.991 273.408 382.234C273.495 382.532 273.807 382.703 274.105 382.616C274.403 382.529 274.575 382.217 274.488 381.919C273.031 376.924 272.822 366.01 273.587 350.993L273.623 350.286C273.912 344.786 274.32 338.944 274.815 332.941L275.036 330.322C275.297 327.293 275.568 324.363 275.84 321.583L276.154 318.455L276.476 315.408L277.603 305.272C277.637 304.964 277.414 304.686 277.106 304.651Z" fill="#253368"/>
</svg>
