<svg width="365" height="399" viewBox="0 0 365 399" fill="none" xmlns="http://www.w3.org/2000/svg">
<path fill-rule="evenodd" clip-rule="evenodd" d="M167.504 249.286C167.504 249.286 169.157 218.174 174.613 189.967C179.591 164.245 187.808 142.421 204.223 144.872C224.831 147.949 216.16 183.62 213.166 201.961C211.013 215.159 203.959 242.278 199.189 256.166C191.582 278.318 163.408 269.158 167.504 249.286Z" fill="#FFC999"/>
<path fill-rule="evenodd" clip-rule="evenodd" d="M211.959 209.358C214.952 191.017 228.367 146.148 205.982 144.073C183.598 141.997 178.137 164.865 173.073 199.404L211.959 209.358Z" fill="#E4EBF7"/>
<path fill-rule="evenodd" clip-rule="evenodd" d="M260.87 497.238C265.939 433.042 256.648 379.827 256.648 379.827C256.648 379.827 235.529 329.991 211.033 364.623C199.171 381.394 202.588 424.173 213.568 495.126C213.568 495.126 215.68 528.49 240.175 526.801C260.678 525.387 260.87 497.238 260.87 497.238Z" fill="#FFC999"/>
<path fill-rule="evenodd" clip-rule="evenodd" d="M263.393 453.416C237.219 463.451 207.032 454.965 207.032 454.965C205.121 435.576 201.741 411.926 201.741 343.506C234.618 319.115 260.924 362.675 260.924 362.675L263.393 453.416Z" fill="#597EF7"/>
<path d="M261.549 387.214C261.828 387.206 262.066 387.404 262.117 387.67L262.127 387.761L263.956 453.399C263.962 453.634 263.822 453.848 263.605 453.936L262.993 454.17L262.358 454.4C262.019 454.519 261.651 454.645 261.252 454.777C259.359 455.402 257.183 456.027 254.756 456.61C239.684 460.23 223.186 460.572 206.865 455.502C206.569 455.41 206.403 455.094 206.495 454.798C206.587 454.501 206.902 454.335 207.199 454.427C223.303 459.431 239.603 459.093 254.493 455.516C256.889 454.94 259.035 454.324 260.899 453.708L261.641 453.458C261.758 453.418 261.872 453.378 261.982 453.339L262.819 453.034L261.002 387.792C260.995 387.513 261.192 387.275 261.458 387.224L261.549 387.214Z" fill="#253368"/>
<path fill-rule="evenodd" clip-rule="evenodd" d="M229.798 135.405C229.798 135.405 232.969 155.616 255.063 157.238C280.705 159.12 285.843 138.824 285.843 138.824L279.841 136.404C278.598 135.902 277.782 134.709 277.78 133.368C277.77 128.585 277.827 116.393 278.487 100.358C256.992 91.5046 241.33 97.0006 241.33 97.0006C241.33 97.0006 240.327 116.022 239.338 130.025C239.242 131.382 238.327 132.542 237.024 132.941C234.778 133.629 231.37 134.714 229.798 135.405Z" fill="#FFC999"/>
<path fill-rule="evenodd" clip-rule="evenodd" d="M285.339 84.9955C285.339 84.9955 288.714 54.226 265.496 51.823C237.452 48.9205 235.049 64.7305 232.809 72.0445C230.433 79.816 226.308 112.857 242.805 120.903C249.843 123.807 254.211 125.457 266.948 119.07C285.483 109.777 285.339 84.9955 285.339 84.9955Z" fill="#FFC999"/>
<path fill-rule="evenodd" clip-rule="evenodd" d="M277.193 107.48L278.513 90.2091C278.513 90.2091 292.402 82.7286 293.455 91.6191C294.527 100.685 288.007 106.561 282.223 108.376C278.503 109.543 277.193 107.48 277.193 107.48Z" fill="#FFC999"/>
<path fill-rule="evenodd" clip-rule="evenodd" d="M277.574 47.2346C277.574 47.2346 263.605 36.6416 256.792 37.5551C249.977 38.4701 255.049 43.9511 255.049 43.9511C255.049 43.9511 236.512 39.8861 234.605 44.0156C232.699 48.1451 239.345 50.4641 239.345 50.4641C239.345 50.4641 220.798 54.7166 219.67 60.1556C218.542 65.5946 227.183 64.7756 227.183 64.7756C227.183 64.7756 220.306 72.3131 222.175 77.0621C224.042 81.8111 228.29 81.4676 228.29 81.4676L230.933 87.8066L232.585 74.7836C232.585 74.7836 239.285 72.2396 251.681 66.9626C243.977 74.1746 248.521 74.4071 254.728 73.4651C262.003 72.3611 270.547 70.2656 270.13 70.0361C270.13 70.0361 269.914 78.5516 275.393 82.7156C282.11 87.8186 276.662 97.3721 278.468 97.8896C281.938 98.9156 281.942 89.3291 288.779 87.9926C294.073 87.8456 295.252 81.4226 293.89 79.1666C300.901 78.5441 300.991 71.3591 292.315 64.7051C300.172 64.0571 295.694 56.6351 284.249 53.0786C288.502 40.4021 277.574 47.2346 277.574 47.2346Z" fill="#253368"/>
<path d="M256.937 79.5889C260.263 79.3109 263.8 79.6141 267.268 80.2878C268.168 80.4625 268.994 80.6499 269.73 80.8378L270.208 80.9636L270.671 81.0947C271.266 81.2749 271.602 81.903 271.422 82.4976C271.241 83.0922 270.613 83.4282 270.019 83.2479L269.633 83.1387C269.504 83.1036 269.35 83.063 269.173 83.0178C268.479 82.8404 267.695 82.6626 266.839 82.4965C263.557 81.8591 260.217 81.5727 257.125 81.831C256.711 81.8656 256.304 81.91 255.905 81.9645C255.29 82.0485 254.722 81.6176 254.638 81.002C254.554 80.3864 254.985 79.8192 255.601 79.7351C256.039 79.6753 256.485 79.6267 256.937 79.5889Z" fill="#253368"/>
<path d="M234.832 79.0058C238.419 77.7184 241.917 77.8517 245.044 78.8486C245.955 79.1393 246.625 79.4355 247.01 79.6467C247.555 79.9454 247.755 80.6292 247.456 81.174C247.177 81.6825 246.563 81.8902 246.039 81.6728L245.753 81.5318C245.696 81.5052 245.629 81.4741 245.55 81.4393C245.208 81.2882 244.81 81.1356 244.36 80.9923C241.671 80.1347 238.666 80.0202 235.592 81.1235C235.007 81.3334 234.363 81.0295 234.153 80.4447C233.943 79.8599 234.247 79.2157 234.832 79.0058Z" fill="#253368"/>
<path d="M246.829 81.2621C247.097 81.1946 247.369 81.3343 247.476 81.5802L247.505 81.666L248.439 85.38L248.452 85.5808L246.967 98.198L251.536 99.4727C251.803 99.547 251.97 99.8031 251.94 100.069L251.923 100.158C251.849 100.425 251.593 100.592 251.326 100.562L251.237 100.545L246.209 99.1423C245.975 99.0768 245.813 98.868 245.803 98.6311L245.806 98.5412L247.334 85.552L246.425 81.9375C246.358 81.6693 246.498 81.3975 246.743 81.2912L246.829 81.2621Z" fill="#DD936F"/>
<path d="M258.599 89.5259C261.382 87.8181 263.981 87.9476 266.164 89.2038C266.775 89.5557 267.212 89.9128 267.459 90.1689C267.747 90.4668 267.739 90.9416 267.441 91.2294C267.143 91.5173 266.669 91.5091 266.381 91.2113C266.224 91.0493 265.894 90.7791 265.415 90.5038C263.681 89.5057 261.663 89.4052 259.383 90.8043C259.03 91.021 258.568 90.9104 258.352 90.5574C258.135 90.2043 258.246 89.7425 258.599 89.5259Z" fill="#253368"/>
<path d="M238.186 86.9428C239.658 86.516 241.186 86.8158 242.655 87.557C243.244 87.8546 243.693 88.1543 243.958 88.3653C244.283 88.6232 244.336 89.095 244.078 89.4191C243.844 89.7138 243.433 89.7849 243.116 89.6016L242.757 89.3492C242.527 89.1953 242.265 89.0405 241.979 88.8962C240.817 88.3099 239.648 88.0805 238.604 88.3834C238.122 88.523 237.67 88.7756 237.245 89.1583C236.937 89.4356 236.463 89.4109 236.186 89.1032C235.908 88.7955 235.933 88.3213 236.241 88.044C236.834 87.5099 237.487 87.1456 238.186 86.9428Z" fill="#253368"/>
<path fill-rule="evenodd" clip-rule="evenodd" d="M259.151 103.263C259.151 103.263 251.102 104.676 243.567 103.156C243.567 103.156 245.379 107.856 250.733 108.087C257.489 108.379 259.151 103.263 259.151 103.263Z" fill="white"/>
<path d="M243.693 102.534C243.202 102.435 242.795 102.917 242.975 103.385C243.046 103.568 243.186 103.868 243.404 104.245C243.762 104.866 244.215 105.486 244.771 106.065C246.273 107.631 248.241 108.614 250.705 108.721C253.914 108.86 256.332 107.867 258.032 106.124C258.994 105.139 259.53 104.149 259.754 103.459C259.902 103.004 259.512 102.555 259.041 102.638L258.459 102.728L257.852 102.811C257.533 102.852 257.19 102.892 256.825 102.931C252.956 103.341 248.855 103.371 245.027 102.772C244.574 102.702 244.129 102.622 243.693 102.534ZM244.84 104.147L244.752 104.013L244.831 104.026C248.784 104.644 252.989 104.614 256.959 104.193L257.678 104.111L258.043 104.065L257.938 104.233C257.71 104.576 257.439 104.915 257.124 105.238C255.672 106.726 253.603 107.576 250.76 107.453C248.641 107.361 246.973 106.528 245.686 105.187C245.366 104.853 245.084 104.502 244.84 104.147Z" fill="#FF7A46"/>
<path d="M239.968 119.342C240.192 119.132 240.545 119.144 240.754 119.368L240.867 119.482C241.005 119.616 241.216 119.805 241.501 120.036C242.142 120.555 242.909 121.076 243.802 121.564C248.636 124.202 254.79 124.777 262.256 121.977C262.544 121.869 262.865 122.014 262.973 122.302C263.081 122.59 262.935 122.911 262.647 123.019C254.869 125.936 248.379 125.33 243.269 122.541C242.315 122.02 241.492 121.461 240.8 120.901C240.379 120.56 240.093 120.29 239.941 120.128C239.731 119.904 239.743 119.552 239.968 119.342Z" fill="#DD936F"/>
<path d="M249.386 111.361L253.196 111.444C253.504 111.45 253.747 111.705 253.741 112.012C253.735 112.289 253.528 112.514 253.263 112.551L253.172 112.556L249.362 112.474C249.055 112.467 248.811 112.213 248.818 111.905C248.824 111.629 249.031 111.404 249.296 111.366L249.386 111.361Z" fill="#DD936F"/>
<path d="M284.816 94.0536C286.546 91.5114 288.361 90.9874 289.89 91.7538C290.124 91.871 290.294 91.9925 290.398 92.0859C290.626 92.2918 290.644 92.6436 290.438 92.8719C290.255 93.0748 289.957 93.1116 289.733 92.9728L289.585 92.8614C289.539 92.8297 289.473 92.79 289.391 92.7488C288.373 92.2383 287.159 92.5885 285.736 94.6798L285.479 95.0618C285.201 95.4785 285.001 95.7948 284.868 96.0286L284.758 96.232L284.851 96.2539C285.076 96.3087 285.19 96.3495 285.348 96.4346L285.432 96.4811C285.886 96.7396 286.231 97.1709 286.456 97.8101C287.392 100.465 284.742 102.297 281.7 102.139C281.393 102.123 281.157 101.861 281.173 101.554C281.189 101.247 281.451 101.011 281.758 101.027C284.134 101.151 285.999 99.8612 285.407 98.18C285.268 97.7861 285.095 97.5698 284.881 97.4481L284.791 97.4012C284.733 97.3747 284.67 97.3554 284.556 97.328L284.341 97.2789C283.069 96.9962 283.252 96.3516 284.816 94.0536Z" fill="#DD936F"/>
<path d="M277.433 106.978C277.71 107.11 277.828 107.442 277.695 107.719L277.522 108.073L277.178 108.748C277.136 108.828 277.093 108.91 277.049 108.993C276.547 109.945 276.005 110.898 275.443 111.789C274.753 112.883 274.08 113.809 273.437 114.516C272.982 115.016 272.546 115.402 272.124 115.663C271.862 115.825 271.519 115.744 271.357 115.483C271.196 115.222 271.276 114.879 271.538 114.717C271.86 114.517 272.223 114.196 272.614 113.767C273.207 113.116 273.844 112.239 274.502 111.195C275.047 110.331 275.575 109.402 276.065 108.474L276.421 107.785L276.691 107.241C276.823 106.963 277.155 106.845 277.433 106.978Z" fill="#DD936F"/>
<path fill-rule="evenodd" clip-rule="evenodd" d="M213.699 290.923C238.403 293.138 300.26 292.631 300.26 292.631C310.454 289.34 304.841 268.757 304.841 268.757C304.841 268.757 310.764 222.694 315.305 186.461C317.258 170.861 323.441 148.925 322.382 148.451C310.479 143.125 297.261 139.744 278.834 136.25C278.292 137.389 272.915 146.261 255.599 146.099C236.643 145.921 232.752 137.33 232.1 135.824C222.861 138.146 215.72 139.594 204.909 143.323C201.623 144.457 199.655 147.83 200.262 151.253L201.236 165.133C201.236 165.133 199.766 198.332 213.345 273.82C206.958 282.694 213.699 290.923 213.699 290.923Z" fill="#E4EBF7"/>
<path d="M281.978 144.343C282.239 144.174 282.587 144.247 282.757 144.507C282.926 144.768 282.853 145.116 282.593 145.286C268.537 154.444 253.825 154.955 240.32 150.335C238.547 149.728 236.959 149.078 235.576 148.427L235.023 148.161C234.936 148.118 234.851 148.075 234.768 148.034L234.072 147.671C233.974 147.617 233.9 147.576 233.852 147.548C233.583 147.392 233.492 147.048 233.647 146.779C233.803 146.511 234.148 146.419 234.416 146.575L234.713 146.738L234.828 146.8C235.176 146.983 235.586 147.188 236.056 147.409C237.402 148.043 238.952 148.678 240.684 149.27C253.889 153.788 268.249 153.289 281.978 144.343Z" fill="#A3B5D6"/>
<path d="M201.78 165.708C202.091 165.713 202.339 165.968 202.335 166.278L202.33 167.708C202.334 169.616 202.372 172.154 202.464 175.283L202.496 176.348C202.709 183.027 203.112 190.574 203.751 198.901C205.523 222.016 208.784 247.19 213.898 273.713C213.919 273.826 213.906 273.943 213.859 274.049C210.207 282.224 210.889 286.853 214.109 289.004C214.694 289.395 215.324 289.668 215.954 289.842L216.217 289.91C216.46 289.967 216.64 289.995 216.72 290.003L224.227 290.049C226.568 290.065 229.061 290.085 231.679 290.108L238.404 290.17C246.609 290.253 254.734 290.356 262.483 290.483L272.25 290.66C284.019 290.895 293.663 291.181 300.593 291.52C300.904 291.535 301.143 291.799 301.128 292.109C301.112 292.42 300.849 292.659 300.538 292.644L298.016 292.528C290.825 292.217 281.226 291.954 269.733 291.736L264.568 291.643C254.798 291.476 244.377 291.348 233.912 291.252L222.493 291.162L216.672 291.126C216.456 291.109 216.102 291.05 215.655 290.927C214.915 290.722 214.176 290.402 213.484 289.94C209.806 287.482 209.002 282.384 212.652 273.998L212.759 273.753L212.412 271.936C207.635 246.762 204.523 222.824 202.765 200.727L202.629 198.987L202.444 196.507C201.94 189.548 201.603 183.16 201.405 177.395L201.372 176.384C201.256 172.749 201.209 169.84 201.205 167.708L201.21 166.264C201.214 165.953 201.47 165.704 201.78 165.708Z" fill="#A3B5D6"/>
<path fill-rule="evenodd" clip-rule="evenodd" d="M330.582 255.011C330.582 255.011 335.079 224.182 335.274 195.451C335.453 169.253 331.685 146.24 315.111 145.417C294.3 144.38 295.788 181.061 295.115 199.633C294.632 212.996 296.217 240.973 298.163 255.527C301.266 278.743 330.692 275.3 330.582 255.011Z" fill="#FFC999"/>
<path fill-rule="evenodd" clip-rule="evenodd" d="M294.845 207.122C295.517 188.551 284.372 141.692 315.122 145.135C333.258 147.164 336.753 170.149 334.929 205.009L294.845 207.122Z" fill="#E4EBF7"/>
<path fill-rule="evenodd" clip-rule="evenodd" d="M250.291 172.479C250.291 172.479 279.981 243.315 298.933 264.238C309.531 275.941 330.825 268.827 327.877 250.354C325.456 235.194 268.506 161.802 268.506 161.802C268.506 161.802 264.315 153.918 254.635 159.121C244.593 164.521 250.291 172.479 250.291 172.479Z" fill="#FFC999"/>
<path fill-rule="evenodd" clip-rule="evenodd" d="M237.913 151.42C237.913 151.42 245.821 171.326 255.865 171.991C264.961 172.592 267.301 161.09 267.301 161.09C267.301 161.09 268.107 151.889 266.278 141.751C265.081 135.106 264.69 122.134 261.124 121.832C256.474 121.441 259.039 134.638 256.203 136.502C250.455 140.282 244.233 119.944 241.453 117.188C236.022 111.8 228.246 127.613 237.913 151.42Z" fill="#FFC999"/>
<path d="M233.1 123.797C234.581 117.248 238.297 114.211 241.467 117.356C242.001 117.886 242.606 118.894 243.461 120.607L243.918 121.541C244.454 122.663 245.851 125.627 246.486 126.941L246.633 127.244C249.529 133.149 251.803 136.395 253.853 136.911C254.428 137.055 254.969 136.961 255.518 136.6C256.214 136.143 256.542 134.843 256.822 131.706L257.028 129.113C257.483 123.698 258.249 121.627 260.792 121.841C263.177 122.042 264.237 125.482 265.267 133.341L265.975 139.043C266.146 140.367 266.291 141.341 266.448 142.214C267.588 148.539 267.831 154.865 267.566 160.272L267.52 161.09L267.493 161.483L316.416 224.948C316.582 225.165 316.565 225.465 316.388 225.661L316.315 225.729C316.098 225.896 315.798 225.878 315.602 225.701L315.534 225.628L266.481 161.993C266.396 161.883 266.355 161.744 266.368 161.605L266.394 161.249L266.44 160.502C266.445 160.41 266.45 160.315 266.455 160.217C266.703 155.131 266.496 149.208 265.5 143.261L265.273 141.956C265.142 141.179 265.016 140.308 264.872 139.193L264.273 134.339L264.059 132.717C263.16 126.229 262.155 123.073 260.698 122.95C259.123 122.817 258.503 124.643 258.11 129.539L257.987 131.147C257.657 135.27 257.309 136.755 256.129 137.53C255.322 138.061 254.46 138.211 253.581 137.99C251.059 137.356 248.703 133.992 245.634 127.734L244.612 125.6C243.853 124.002 242.975 122.141 242.756 121.692L242.464 121.102C241.667 119.507 241.103 118.562 240.684 118.147C238.371 115.853 235.508 118.193 234.186 124.042C232.577 131.156 233.722 141.114 238.051 151.774C238.167 152.058 238.03 152.383 237.745 152.499C237.46 152.614 237.136 152.477 237.02 152.192C232.609 141.333 231.438 131.146 233.1 123.797Z" fill="#DD936F"/>
<path d="M238.144 118.28C238.448 118.24 238.728 118.454 238.769 118.758C239.286 122.626 240.595 126.578 242.456 130.449C243.317 132.242 244.24 133.899 245.163 135.378L245.538 135.969C245.659 136.157 245.776 136.334 245.888 136.502L246.256 137.04C246.312 137.119 246.354 137.179 246.384 137.218C246.565 137.466 246.512 137.815 246.264 137.996C246.016 138.178 245.668 138.124 245.486 137.877L245.133 137.372L244.787 136.855C244.607 136.581 244.417 136.285 244.219 135.967C243.275 134.455 242.332 132.763 241.452 130.931C239.545 126.962 238.2 122.903 237.666 118.906C237.625 118.601 237.839 118.321 238.144 118.28Z" fill="#DD936F"/>
<path d="M234.763 122.365C235.069 122.337 235.339 122.564 235.367 122.87L235.408 123.224L235.463 123.611C235.494 123.817 235.531 124.042 235.574 124.285C235.782 125.449 236.087 126.781 236.51 128.259C237.722 132.492 239.631 137.037 242.391 141.715C242.547 141.979 242.459 142.32 242.195 142.477C241.93 142.633 241.589 142.545 241.432 142.28C238.623 137.518 236.677 132.886 235.44 128.566C235.007 127.05 234.692 125.681 234.479 124.48L234.397 123.998C234.372 123.846 234.351 123.702 234.331 123.566L234.258 122.968C234.231 122.662 234.457 122.392 234.763 122.365Z" fill="#DD936F"/>
<path d="M233.602 132.565C233.897 132.48 234.205 132.651 234.29 132.947C234.519 133.744 234.754 134.521 234.995 135.278C236.097 138.74 237.276 141.653 238.453 144.035C238.805 144.747 239.135 145.365 239.436 145.893L239.742 146.414C239.862 146.611 239.949 146.746 240 146.822C240.174 147.075 240.108 147.422 239.855 147.595C239.601 147.768 239.255 147.703 239.081 147.45L238.933 147.221C238.871 147.123 238.798 147.004 238.713 146.862L238.625 146.712C238.271 146.11 237.878 145.382 237.456 144.528C236.254 142.096 235.053 139.131 233.934 135.616C233.69 134.848 233.452 134.061 233.22 133.253C233.136 132.958 233.306 132.65 233.602 132.565Z" fill="#DD936F"/>
<path fill-rule="evenodd" clip-rule="evenodd" d="M329.232 472.742C325.852 415.304 325.009 396.438 315.435 350.826C315.435 350.826 281.929 316.476 267.571 372.225C264.967 382.326 270.294 417.071 278.458 475.341C278.458 475.341 278.553 505.74 305.58 504.839C330.921 503.994 329.232 472.742 329.232 472.742Z" fill="#FFC999"/>
<path fill-rule="evenodd" clip-rule="evenodd" d="M320.052 344.93C320.052 344.93 285.822 310.961 258.874 372.845C265.036 407.702 271.165 452.541 271.165 452.541C271.165 452.541 301.357 460.071 330.076 446.556C322.416 361.332 320.052 344.93 320.052 344.93Z" fill="#597EF7"/>
<path d="M312.268 340.414C312.576 340.375 312.857 340.594 312.896 340.902L313.378 344.829C314.408 353.34 315.824 365.738 317.54 381.194L319.269 396.866C320.065 404.133 320.881 411.632 321.7 419.202L324.723 447.342C324.756 447.651 324.532 447.928 324.223 447.961C323.945 447.99 323.693 447.812 323.621 447.551L323.592 447.341L321.128 424.378C320.126 415.097 319.124 405.87 318.15 396.989L315.236 370.702C313.786 357.802 312.611 347.695 311.78 341.042C311.741 340.733 311.96 340.452 312.268 340.414Z" fill="#253368"/>
<path d="M245.346 383.003L261.959 386.381C262.163 386.422 262.325 386.572 262.384 386.767L262.403 386.853L271.666 452.064L272.488 452.214L273.065 452.313C274.513 452.557 276.162 452.801 277.984 453.029C288.065 454.29 298.625 454.536 308.488 453.129C316.772 451.948 323.973 449.652 329.781 446.078C330.045 445.915 330.392 445.998 330.555 446.262C330.717 446.527 330.635 446.873 330.37 447.036C324.417 450.7 317.072 453.042 308.647 454.243C298.67 455.665 288.016 455.417 277.844 454.145C276.236 453.944 274.76 453.73 273.436 453.515L272.878 453.422C272.366 453.336 271.915 453.256 271.529 453.183L271.054 453.092C270.85 453.05 270.688 452.9 270.628 452.706L270.609 452.62L261.345 387.404L245.122 384.105C244.848 384.05 244.661 383.803 244.671 383.533L244.683 383.442C244.739 383.168 244.985 382.981 245.255 382.992L245.346 383.003Z" fill="#253368"/>
<path fill-rule="evenodd" clip-rule="evenodd" d="M320.693 349.062L267.11 382.19C267.11 382.19 253.541 385.727 243.548 381.636C229.033 375.693 212.771 366.042 201.643 355.203C201.529 319.722 213.515 299.736 213.515 299.736L304.643 299.226C304.643 299.226 315.614 305.072 320.693 349.062Z" fill="#597EF7"/>
<path fill-rule="evenodd" clip-rule="evenodd" d="M212.64 300.55L213.869 289.606L304.643 289.512L305.999 301.57C305.999 301.57 221.925 300.876 212.64 300.55Z" fill="#597EF7"/>
<path d="M253.023 290.312C253.302 290.309 253.536 290.512 253.582 290.779L253.59 290.93L253.641 295.3L253.711 299.908C253.748 302.15 253.793 304.515 253.846 306.982L253.948 311.513C254.183 321.322 254.505 331.065 254.929 340.308L255.029 342.432C255.831 359.152 256.905 372.609 258.287 381.609C258.334 381.916 258.124 382.203 257.817 382.251C257.51 382.298 257.222 382.087 257.175 381.78L257.025 380.775C255.708 371.746 254.68 358.633 253.905 342.486C253.397 331.902 253.026 320.61 252.77 309.274L252.678 304.915C252.643 303.195 252.613 301.53 252.586 299.927L252.509 294.794L252.465 290.879C252.462 290.568 252.712 290.314 253.023 290.312Z" fill="#253368"/>
<path d="M266.694 300.278C267.004 300.269 267.264 300.512 267.274 300.823L267.578 309.658L267.84 316.867C267.929 319.255 268.019 321.622 268.111 323.947L268.468 332.676C268.629 336.451 268.787 339.887 268.939 342.923L269.147 346.898C269.308 349.804 269.459 352.161 269.599 353.937C269.462 357.858 266.797 360.609 262.512 362.391C260.999 363.02 259.383 363.483 257.768 363.807C257.316 363.897 256.89 363.972 256.496 364.031L255.948 364.108C255.794 364.128 255.677 364.14 255.601 364.147C255.292 364.176 255.018 363.949 254.989 363.64C254.96 363.33 255.188 363.056 255.497 363.027L256.051 362.959C256.502 362.897 257.005 362.812 257.547 362.704C259.095 362.393 260.641 361.95 262.08 361.352C266.002 359.722 268.356 357.291 268.477 353.962L268.38 352.694C268.249 350.879 268.109 348.575 267.962 345.822L267.78 342.271C267.592 338.456 267.396 334.042 267.194 329.144L266.918 322.24C266.827 319.894 266.737 317.512 266.649 315.113L266.15 300.859C266.14 300.549 266.383 300.289 266.694 300.278Z" fill="#253368"/>
<path d="M273.676 299.797C286.889 299.798 297.805 299.841 305.776 299.931C306.086 299.934 306.335 300.189 306.332 300.5C306.328 300.81 306.074 301.059 305.763 301.056L300.023 301.003C291.19 300.937 279.799 300.913 266.416 300.925L252.953 300.947C248.37 300.958 243.706 300.973 239.003 300.99L225.209 301.047L212.644 301.113C212.333 301.115 212.08 300.864 212.078 300.554C212.076 300.243 212.326 299.99 212.637 299.988L228.506 299.907L243.688 299.849C248.36 299.833 252.98 299.821 257.505 299.813L273.676 299.797Z" fill="#253368"/>
<path d="M294.475 301.198C294.785 301.18 295.051 301.417 295.069 301.727L295.091 302.031L295.144 302.666L295.167 302.907C295.259 303.854 295.385 304.91 295.552 306.047C296.029 309.295 296.734 312.542 297.709 315.568C299.95 322.516 303.258 327.213 307.775 328.676C308.07 328.772 308.232 329.089 308.136 329.385C308.041 329.68 307.723 329.842 307.428 329.747C302.482 328.144 298.98 323.171 296.639 315.913C295.642 312.822 294.924 309.516 294.439 306.211C294.297 305.247 294.185 304.34 294.097 303.507L294.003 302.537L293.946 301.793C293.928 301.483 294.165 301.217 294.475 301.198Z" fill="#253368"/>
<path d="M301.446 300.829C301.727 300.696 302.062 300.816 302.195 301.097L302.362 301.463C302.468 301.702 302.588 301.979 302.72 302.293L302.822 302.535C303.261 303.589 303.743 304.824 304.26 306.241L304.456 306.781C306.142 311.475 307.828 317.071 309.4 323.555C311.712 333.087 313.576 343.719 314.833 355.434C314.866 355.742 314.642 356.02 314.333 356.053C314.024 356.086 313.747 355.862 313.714 355.554C312.463 343.888 310.607 333.305 308.307 323.821C306.744 317.375 305.07 311.819 303.397 307.162L303.014 306.11C302.637 305.093 302.28 304.178 301.948 303.366L301.589 302.507C301.528 302.363 301.469 302.228 301.414 302.102L301.178 301.578C301.045 301.297 301.165 300.962 301.446 300.829Z" fill="#253368"/>
<path d="M218.783 300.49C219.088 300.546 219.291 300.839 219.235 301.145L219.183 301.411C219.141 301.625 219.09 301.872 219.03 302.15L218.941 302.554L218.745 303.404C218.641 303.842 218.527 304.3 218.404 304.775C217.699 307.491 216.828 310.208 215.78 312.747C213.229 318.932 210.061 323.089 206.144 324.26C205.846 324.349 205.532 324.179 205.444 323.882C205.355 323.584 205.524 323.271 205.821 323.182C209.319 322.136 212.307 318.216 214.74 312.318C215.766 309.831 216.622 307.162 217.315 304.493C217.477 303.87 217.622 303.276 217.75 302.72L217.999 301.589C218.061 301.292 218.104 301.073 218.128 300.943C218.178 300.667 218.421 300.476 218.692 300.481L218.783 300.49Z" fill="#253368"/>
<path fill-rule="evenodd" clip-rule="evenodd" d="M259.306 295.425C259.268 296.514 258.103 297.355 256.705 297.306C255.307 297.256 254.204 296.335 254.242 295.248C254.279 294.16 255.445 293.317 256.843 293.367C258.241 293.416 259.343 294.337 259.306 295.425Z" fill="#253368"/>
<path fill-rule="evenodd" clip-rule="evenodd" d="M288.814 270.602C288.814 270.602 208.402 274.511 179.912 267.55C163.981 263.657 161.458 239.236 179.912 233.2C187.229 230.807 211.454 236.29 240.166 242.773C266.351 248.686 287.75 252.628 287.75 252.628C287.75 252.628 299.012 252.628 299.012 260.512C299.012 271.915 288.814 270.602 288.814 270.602Z" fill="#FFC999"/>
<path fill-rule="evenodd" clip-rule="evenodd" d="M304.451 272.258C304.451 272.258 283.034 272.564 278.579 263.538C274.544 255.363 282.963 250.938 282.963 250.938C282.963 250.938 292.47 244.541 302.538 242.351C309.135 240.915 321.27 236.318 322.913 239.496C325.053 243.642 311.879 246.32 311.24 249.653C309.945 256.41 331.116 254.381 334.727 255.894C341.781 258.852 330.146 272.087 304.451 272.258Z" fill="#FFC999"/>
<path d="M197.391 233.207L197.481 233.218L282.528 250.621L282.684 250.494L282.873 250.342C283.326 249.984 283.862 249.585 284.478 249.157C286.235 247.935 288.291 246.715 290.63 245.577C293.988 243.944 297.644 242.62 301.575 241.713L303.405 241.307C304.193 241.123 305.057 240.893 307.13 240.32L310.542 239.378L311.771 239.049C318.931 237.164 322.344 236.902 323.406 238.959C324.609 241.286 322.899 242.786 317.752 245.41L315.412 246.602C315.231 246.697 315.075 246.782 314.862 246.898C312.919 247.961 311.919 248.789 311.787 249.476C311.513 250.908 312.485 251.952 314.754 252.73C316.64 253.376 319.23 253.773 322.744 254.033L324.683 254.161L329.662 254.409C332.725 254.575 334.084 254.74 334.941 255.099C339.059 256.826 337.674 261.421 332.191 265.294C326.15 269.56 316.54 272.35 305.108 272.525L304.393 272.533L303.851 272.532C303.645 272.531 303.413 272.527 303.157 272.521L302.893 272.515C301.941 272.49 300.907 272.441 299.812 272.364C296.794 272.15 293.797 271.754 290.992 271.13C290.312 270.979 289.649 270.816 289.006 270.639C288.709 270.558 288.535 270.252 288.616 269.956C288.697 269.659 289.004 269.485 289.3 269.566C289.926 269.737 290.571 269.897 291.234 270.044C293.979 270.655 296.924 271.044 299.891 271.254C300.969 271.33 301.986 271.378 302.922 271.402L303.859 271.419L304.448 271.42C315.953 271.343 325.591 268.592 331.549 264.385C336.447 260.926 337.514 257.385 334.511 256.126C333.738 255.802 332.17 255.644 328.546 255.466L324.617 255.272C324.124 255.244 323.749 255.219 323.176 255.18C319.311 254.914 316.485 254.499 314.393 253.782C311.664 252.847 310.29 251.373 310.694 249.266C310.905 248.166 311.98 247.236 314.041 246.081L314.889 245.619L316.931 244.579C321.625 242.208 323.165 240.917 322.417 239.47C321.72 238.119 318.137 238.487 311.236 240.343L305.42 241.942C304.123 242.291 303.584 242.415 302.654 242.613C298.491 243.501 294.637 244.866 291.117 246.578C288.832 247.69 286.825 248.881 285.113 250.07C284.616 250.416 284.174 250.741 283.788 251.039L283.335 251.399C283.201 251.508 283.106 251.588 283.051 251.637C282.946 251.73 282.811 251.779 282.674 251.777L282.57 251.766L197.258 234.309C196.957 234.247 196.763 233.953 196.824 233.652C196.88 233.381 197.123 233.197 197.391 233.207Z" fill="#DD936F"/>
<path d="M334.302 258.975C334.599 258.896 334.904 259.073 334.983 259.37C335.062 259.667 334.885 259.972 334.588 260.051C333.964 260.216 333.327 260.364 332.68 260.494C327.637 261.505 322.266 261.415 317.176 260.658C316.335 260.532 315.574 260.398 314.907 260.264L314.335 260.143C314.223 260.118 314.134 260.098 314.069 260.082C313.77 260.009 313.587 259.707 313.66 259.409C313.734 259.11 314.035 258.928 314.333 259.001L314.824 259.11L315.126 259.173C315.776 259.303 316.518 259.434 317.34 259.557C322.314 260.297 327.563 260.385 332.461 259.403C333.086 259.277 333.7 259.135 334.302 258.975Z" fill="#DD936F"/>
<path d="M331.804 263.692C332.098 263.6 332.41 263.764 332.502 264.057C332.594 264.35 332.431 264.662 332.137 264.754L331.877 264.83C331.767 264.861 331.633 264.896 331.476 264.936L331.311 264.977C330.647 265.139 329.869 265.302 328.982 265.453C324.077 266.29 318.192 266.45 311.548 265.511C311.244 265.468 311.032 265.186 311.075 264.882C311.118 264.578 311.4 264.366 311.704 264.409C318.229 265.331 323.998 265.174 328.795 264.356C329.512 264.234 330.154 264.104 330.717 263.974L331.046 263.896C331.425 263.803 331.68 263.731 331.804 263.692Z" fill="#DD936F"/>
<path d="M322.907 268.541C323.212 268.506 323.488 268.725 323.522 269.031C323.557 269.336 323.338 269.612 323.032 269.647C317.691 270.254 313.287 270.283 309.862 269.954L309.439 269.911C309.035 269.868 308.675 269.822 308.359 269.775L307.897 269.701C307.797 269.684 307.722 269.669 307.673 269.659C307.373 269.596 307.18 269.301 307.243 269C307.307 268.699 307.602 268.507 307.902 268.57L308.306 268.641L308.757 268.707C308.999 268.74 309.266 268.773 309.558 268.804C312.96 269.169 317.425 269.164 322.907 268.541Z" fill="#DD936F"/>
<path d="M172.534 199.245C172.613 198.977 172.875 198.812 173.143 198.846L173.233 198.865L203.498 207.808C203.796 207.896 203.966 208.209 203.878 208.507C203.799 208.775 203.538 208.939 203.269 208.905L203.18 208.887L172.914 199.944C172.616 199.856 172.446 199.543 172.534 199.245Z" fill="#A3B5D6"/>
<path d="M334.911 204.447C335.221 204.437 335.481 204.68 335.492 204.99C335.5 205.27 335.304 205.508 335.039 205.561L334.948 205.571L303.173 206.62C302.863 206.63 302.603 206.387 302.592 206.076C302.583 205.797 302.779 205.558 303.045 205.506L303.136 205.495L334.911 204.447Z" fill="#A3B5D6"/>
</svg>
