<svg width="219" height="320" viewBox="0 0 219 320" fill="none" xmlns="http://www.w3.org/2000/svg">
<g clip-path="url(#clip0)">
<path fill-rule="evenodd" clip-rule="evenodd" d="M51.1143 41.4286C51.1143 41.4286 42.2366 55.61 46.4603 62.2423C50.2855 68.2464 58.6093 64.4031 58.6093 64.4031C58.6093 64.4031 64.7739 60.6574 70.3144 54.8196C73.9444 50.9929 81.9301 44.7509 80.4718 42.3661C78.5695 39.2568 71.4456 46.9723 68.9605 46.0485C63.9245 44.1778 73.8523 30.8582 74.3045 27.8342C75.1842 21.9236 61.6332 24.3359 51.1143 41.4286Z" fill="#F5D8CF"/>
<path d="M71.4151 26.184C71.6203 25.9866 71.9466 25.993 72.1439 26.1982C72.3413 26.4034 72.3349 26.7297 72.1297 26.927C70.8623 28.1461 69.69 29.5575 68.6118 31.1236C67.241 33.1146 66.0897 35.251 65.1513 37.3875C64.823 38.1351 64.5449 38.8288 64.3162 39.4505L64.1283 39.977C64.0928 40.0805 64.0659 40.1622 64.0475 40.2208C63.9621 40.4923 63.6727 40.6432 63.4012 40.5578C63.1296 40.4724 62.9787 40.183 63.0641 39.9114L63.1514 39.6479C63.1891 39.5377 63.2355 39.4058 63.2907 39.2535L63.3487 39.0944C63.5846 38.4536 63.8704 37.7404 64.2075 36.9729C65.1704 34.7806 66.3519 32.5881 67.7627 30.5389C68.8784 28.9183 70.0947 27.4541 71.4151 26.184Z" fill="#9B6160"/>
<path d="M67.2843 25.9135C67.4979 25.7254 67.8236 25.7461 68.0117 25.9598C68.1998 26.1735 68.1791 26.4992 67.9654 26.6873L67.7157 26.9209C67.6322 27.0019 67.5333 27.0999 67.42 27.215C66.9746 27.6675 66.4768 28.2146 65.9398 28.8572C64.4004 30.699 62.8592 32.9331 61.4194 35.5661C60.6889 36.9021 60.0025 38.3107 59.368 39.7926C59.2559 40.0543 58.9529 40.1756 58.6913 40.0635C58.4296 39.9514 58.3083 39.6484 58.4204 39.3867C59.068 37.8743 59.7688 36.4361 60.515 35.0714C61.988 32.3775 63.5675 30.0882 65.1489 28.196C65.6248 27.6266 66.0723 27.1281 66.4831 26.7L66.9076 26.2693C67.0764 26.1031 67.2035 25.9846 67.2843 25.9135Z" fill="#9B6160"/>
<path d="M60.318 30.0242C60.4921 29.799 60.8158 29.7575 61.041 29.9316C61.2662 30.1057 61.3077 30.4295 61.1336 30.6547C59.0651 33.3309 57.4783 35.7853 56.3112 37.963L55.9824 38.5914C55.7763 38.9955 55.5961 39.3696 55.4405 39.7126L55.2151 40.2274C55.1324 40.4243 55.0784 40.5639 55.0503 40.6437C54.9559 40.9123 54.6616 41.0535 54.3931 40.959C54.1245 40.8646 53.9834 40.5704 54.0778 40.3018L54.2119 39.9554C54.2588 39.8409 54.3161 39.7055 54.3842 39.55C54.6461 38.9526 54.983 38.259 55.4026 37.476C56.5966 35.2483 58.2144 32.7459 60.318 30.0242Z" fill="#9B6160"/>
<path fill-rule="evenodd" clip-rule="evenodd" d="M40.4427 136.374C40.4427 136.374 32.0818 154.265 16.9034 147.766C1.24952 141.062 8.47514 123.528 8.47514 123.528C8.47514 123.528 13.8658 111.315 20.4413 96.2335C24.4576 87.0267 29.095 76.9484 33.5099 70.114C38.2917 62.7148 43.0776 63.8268 50.6675 67.0763C59.6799 70.936 63.013 73.4474 60.7341 81.9119C58.5625 89.982 54.2507 100.383 51.275 108.595C45.5998 124.251 40.4427 136.374 40.4427 136.374Z" fill="#ADC6FF"/>
<path fill-rule="evenodd" clip-rule="evenodd" d="M44.118 55.9272L61.6687 63.442L57.8545 75.8433L37.7775 67.2454L44.118 55.9272Z" fill="#ADC6FF"/>
<path fill-rule="evenodd" clip-rule="evenodd" d="M60.6417 54.6123L50.0596 40.1286C49.1841 38.9299 49.4452 37.2475 50.6438 36.3705L81.8114 13.5953C83.0113 12.7184 84.6937 12.9809 85.5692 14.1795L96.1513 28.6633C97.0282 29.8633 96.7657 31.5444 95.5672 32.42L64.3981 55.1965C63.1996 56.0735 61.5186 55.8123 60.6417 54.6123Z" fill="#253368"/>
<path fill-rule="evenodd" clip-rule="evenodd" d="M17.3752 116.429C17.3752 116.429 0.302863 125.306 8.77102 140.902C17.4055 156.805 34.3267 147.143 34.3267 147.143C34.3267 147.143 46.33 141.134 60.6218 133.391C71.788 127.34 80.3813 122.742 87.1561 118.185C94.4655 113.269 97.4523 103.893 93.4855 96.5883C87.4585 85.4873 78.2783 84.5293 70.3888 88.3478C62.7165 92.0619 52.5192 97.3925 44.1556 101.676C28.0728 109.909 17.3752 116.429 17.3752 116.429Z" fill="#ADC6FF"/>
<path fill-rule="evenodd" clip-rule="evenodd" d="M179.738 161.51C179.738 161.51 193.046 175.409 205.57 163.002C218.34 150.352 204.326 136.815 204.326 136.815C204.326 136.815 195.193 126.979 183.753 115.431C174.816 106.407 167.993 99.4474 161.724 94.2172C154.959 88.5746 145.342 91.0406 139.476 96.8509C130.561 105.682 134.227 116.073 140.105 122.574C145.822 128.896 151.806 135.851 158.262 142.679C170.675 155.807 179.738 161.51 179.738 161.51Z" fill="#ADC6FF"/>
<path fill-rule="evenodd" clip-rule="evenodd" d="M130.928 53.7561C130.928 53.7561 140.853 48.6441 137.82 38.0269C142.354 29.0744 137.34 23.3617 137.34 23.3617C137.34 23.3617 137.435 11.4717 129.578 10.6154C124.913 -1.69249 110.939 2.75424 110.939 2.75424C110.939 2.75424 102.248 -4.69865 89.3282 4.91643C80.045 5.02776 80.1206 0.421593 77.0638 3.55285C74.0056 6.68411 72.4936 14.1507 76.3985 17.1982C69.4698 19.9885 75.4598 31.0373 75.4598 31.0373C75.4598 31.0373 73.064 37.2943 80.8601 42.2304C88.6547 47.165 91.3075 62.2371 104.342 67.2722C116.882 72.1148 130.391 68.3856 130.928 53.7561Z" fill="#7D4556"/>
<path fill-rule="evenodd" clip-rule="evenodd" d="M124.014 75.9281L123.035 55.3962L95.8016 58.1619L95.1364 76.0724C94.8395 84.0683 101.194 90.7363 109.195 90.8229C109.347 90.8242 109.498 90.827 109.652 90.8284C117.833 90.9219 124.404 84.1013 124.014 75.9281Z" fill="#F5D8CF"/>
<path fill-rule="evenodd" clip-rule="evenodd" d="M118.088 23.9499C118.088 23.9499 116.094 31.1073 121.586 33.1815C120.093 42.4722 124.188 41.888 124.188 41.888C124.188 41.888 131.141 33.9719 135.18 41.4591C139.016 48.5725 131.117 58.281 124.42 56.3305C112.087 73.7779 89.4356 73.3944 82.6319 61.1126C78.4961 53.6488 80.7516 43.2653 80.4561 38.3114C79.729 26.1341 82.1701 22.5974 82.1701 22.5974C82.1701 22.5974 86.7402 23.8455 92.0086 20.3403C97.211 24.6716 105.215 21.1321 105.215 21.1321C105.215 21.1321 110.054 28.0887 118.088 23.9499Z" fill="#F5D8CF"/>
<path d="M129.324 42.5234C130.852 42.3132 131.88 42.7431 132.421 43.6118C132.689 44.0418 132.78 44.4659 132.784 44.7762C132.787 45.0609 132.559 45.2944 132.275 45.2979C132.019 45.301 131.804 45.1167 131.761 44.8723L131.753 44.7888C131.751 44.65 131.697 44.4005 131.546 44.1568C131.229 43.6487 130.605 43.3878 129.464 43.5447C128.355 43.6967 127.389 44.4719 126.783 45.5574C126.53 46.0115 126.369 46.4782 126.327 46.8533C126.296 47.1273 126.334 47.2719 126.344 47.2781C127.36 47.9387 128.125 48.8388 128.331 49.7864C128.596 51.0017 127.938 52.1204 126.367 52.9767C126.117 53.1129 125.804 53.0207 125.668 52.7707C125.532 52.5207 125.624 52.2076 125.874 52.0714C127.075 51.417 127.481 50.7261 127.324 50.0057C127.185 49.3669 126.591 48.6688 125.782 48.1425C124.145 47.079 126.469 42.9145 129.324 42.5234Z" fill="#9B6160"/>
<path d="M128.906 46.2583C130.203 46.4706 131.043 47.1255 130.949 48.3356C130.926 48.6194 130.678 48.8314 130.394 48.8092C130.139 48.7891 129.942 48.5862 129.921 48.3389L129.921 48.255C129.963 47.715 129.575 47.4124 128.74 47.2757C128.4 47.2201 128.037 47.204 127.689 47.2146L127.431 47.2274C127.35 47.233 127.293 47.2384 127.266 47.2416C126.983 47.2748 126.727 47.0725 126.694 46.7898C126.661 46.507 126.863 46.2509 127.146 46.2177L127.361 46.1989C127.855 46.1649 128.391 46.174 128.906 46.2583Z" fill="#9B6160"/>
<path fill-rule="evenodd" clip-rule="evenodd" d="M99.0077 39.556C99.0668 44.5223 103.141 48.5003 108.108 48.4398C113.074 48.3807 117.052 44.3065 116.991 39.3402C116.932 34.3725 112.858 30.3959 107.892 30.455C102.926 30.5141 98.9486 34.5897 99.0077 39.556Z" fill="white"/>
<path d="M107.885 29.8213C102.569 29.8845 98.3107 34.2469 98.374 39.5634C98.4373 44.8801 102.799 49.1381 108.116 49.0733C113.432 49.0101 117.69 44.6485 117.625 39.3324C117.562 34.0154 113.201 29.758 107.885 29.8213ZM107.9 31.0885C112.516 31.0336 116.303 34.7305 116.358 39.3476C116.414 43.9639 112.717 47.7511 108.1 47.8061C103.483 47.8623 99.6961 44.165 99.6412 39.5483C99.5863 34.9316 103.284 31.1435 107.9 31.0885Z" fill="#7D4556"/>
<path fill-rule="evenodd" clip-rule="evenodd" d="M77.1886 38.9754C77.2477 43.9417 81.3216 47.9197 86.289 47.8606C91.255 47.8001 95.2327 43.7259 95.1722 38.7596C95.1131 33.7933 91.0392 29.8153 86.0732 29.8744C81.1072 29.9349 77.1295 34.0091 77.1886 38.9754Z" fill="white"/>
<path d="M86.0654 29.2407C80.7494 29.3055 76.4916 33.6668 76.5549 38.9829C76.6181 44.2993 80.9793 48.5574 86.2964 48.4942C91.6128 48.4294 95.8704 44.0677 95.8057 38.7518C95.7435 33.523 91.5233 29.3174 86.3262 29.2411L86.0654 29.2407ZM86.0808 30.508C90.6968 30.453 94.4836 34.1508 94.5385 38.7671C94.5947 43.3832 90.8976 47.1707 86.2812 47.2269C81.664 47.2818 77.877 43.5843 77.822 38.9678C77.7671 34.3516 81.4645 30.5642 86.0808 30.508Z" fill="#7D4556"/>
<path d="M96.9112 37.9271C97.1478 38.0854 97.2111 38.4056 97.0527 38.6422L96.8962 38.8814C96.7699 39.0769 96.6289 39.2998 96.477 39.546C96.0428 40.2495 95.6085 40.9971 95.2038 41.7555C94.8618 42.3964 94.5564 43.0166 94.297 43.605C93.4265 45.5798 93.1616 47.0312 93.5849 47.599C94.1095 48.3023 94.8445 48.7279 95.7533 48.9219C96.6009 49.1028 97.524 49.0699 98.4062 48.9035C98.6794 48.852 98.8789 48.8013 98.9815 48.7698C99.2536 48.6862 99.542 48.8391 99.6256 49.1112C99.7092 49.3833 99.5563 49.6717 99.2842 49.7553L99.1146 49.8027C98.9807 49.8374 98.8061 49.8772 98.5972 49.9166C97.592 50.1061 96.5389 50.1437 95.5382 49.9301C94.3989 49.6869 93.4437 49.1338 92.7585 48.2153C92.0184 47.2224 92.3311 45.5091 93.3537 43.1891C93.6243 42.5754 93.9409 41.9325 94.2944 41.2701C94.7101 40.4911 95.1549 39.7253 95.5998 39.0045L95.9301 38.478L96.1962 38.0686C96.3545 37.832 96.6747 37.7687 96.9112 37.9271Z" fill="#9B6160"/>
<path fill-rule="evenodd" clip-rule="evenodd" d="M105.353 52.5171C105.353 52.5171 97.0444 53.5686 91.0902 52.6889C91.0902 52.6889 92.8248 58.6119 98.7598 57.827C104.031 57.1301 105.353 52.5171 105.353 52.5171Z" fill="white"/>
<path d="M105.285 51.9798L104.579 52.0603L103.865 52.133C103.492 52.1691 103.095 52.2046 102.678 52.2387C100.177 52.4432 97.6405 52.5428 95.2784 52.4799C93.7678 52.4397 92.3881 52.3332 91.1694 52.1531C90.7786 52.0954 90.4595 52.462 90.5705 52.8411L90.6315 53.0299C90.6944 53.2106 90.7879 53.448 90.9152 53.7275C91.21 54.3746 91.5888 55.0213 92.0619 55.6271C93.651 57.6619 95.8925 58.7525 98.8308 58.3639C101.108 58.0628 102.876 57.0572 104.184 55.574C104.738 54.9446 105.171 54.2712 105.498 53.5968C105.697 53.1875 105.817 52.8635 105.874 52.6663C105.981 52.2925 105.671 51.931 105.285 51.9798ZM104.507 53.1563L104.524 53.1242C104.237 53.7148 103.857 54.3065 103.371 54.8579C102.231 56.152 100.696 57.0247 98.6888 57.2901C96.1602 57.6245 94.2826 56.711 92.9155 54.9604L92.7138 54.6903C92.4537 54.3262 92.2289 53.9472 92.0379 53.5652L91.9314 53.3432L91.9891 53.3506C92.9956 53.4623 94.0863 53.5317 95.2495 53.5627C97.6557 53.6267 100.229 53.5257 102.767 53.3182L103.583 53.2474L104.507 53.1563Z" fill="#7D4556"/>
<path d="M92.6104 27.393C92.8795 27.2625 93.2034 27.3749 93.3339 27.6441C93.4643 27.9132 93.3519 28.2372 93.0828 28.3676C90.189 29.7705 86.6038 30.1581 82.9463 29.1987C82.657 29.1228 82.484 28.8267 82.5598 28.5374C82.6357 28.2481 82.9318 28.0751 83.2211 28.151C86.6248 29.0438 89.9456 28.6848 92.6104 27.393Z" fill="#7D4556"/>
<path d="M96.4166 35.9548C97.3395 35.8943 98.3174 35.9492 99.2741 36.0772C99.5137 36.1093 99.7336 36.1437 99.9293 36.1782L100.183 36.2262L99.9232 37.4665L99.5383 37.3969C99.4134 37.3767 99.2683 37.3551 99.106 37.3334C98.2258 37.2156 97.3275 37.1651 96.4994 37.2194C95.9944 37.2525 95.5381 37.324 95.1426 37.4362L94.9126 37.5083L94.4977 36.3108C95.0609 36.1157 95.7053 36.0014 96.4166 35.9548Z" fill="#7D4556"/>
<path d="M83.983 40.7848C83.9448 41.0946 83.6825 41.3362 83.3618 41.34C83.041 41.3438 82.7731 41.1086 82.7274 40.7999L82.7206 40.714C82.7174 40.1945 82.8135 39.4925 83.1118 38.7803C83.6376 37.5248 84.6428 36.7288 86.1588 36.7105C87.6638 36.6924 88.726 37.4053 89.363 38.5655C89.7268 39.228 89.8848 39.8796 89.9258 40.3409C89.9569 40.6895 89.6995 40.9972 89.3509 41.0283C89.0023 41.0593 88.6946 40.8019 88.6636 40.4533L88.6487 40.3421C88.6372 40.2711 88.619 40.1784 88.5925 40.0693C88.5182 39.7624 88.4063 39.4562 88.2522 39.1755C87.8274 38.4019 87.1776 37.9657 86.174 37.9778C85.2056 37.9895 84.6241 38.4499 84.2806 39.27C84.1535 39.5736 84.0703 39.906 84.0244 40.2411C84.0075 40.3648 83.9975 40.4725 83.9923 40.5587L83.983 40.7848Z" fill="#7D4556"/>
<path d="M105.616 40.5251C105.578 40.8348 105.316 41.0764 104.995 41.0802C104.674 41.0841 104.406 40.8489 104.361 40.5401L104.354 40.4542C104.351 39.9347 104.447 39.2327 104.745 38.5206C105.271 37.265 106.276 36.469 107.792 36.4508C109.297 36.4327 110.359 37.1455 110.996 38.3057C111.36 38.9683 111.518 39.6199 111.559 40.0811C111.59 40.4297 111.333 40.7375 110.984 40.7685C110.636 40.7995 110.328 40.5421 110.297 40.1935L110.282 40.0823C110.27 40.0114 110.252 39.9187 110.226 39.8096C110.151 39.5027 110.04 39.1965 109.885 38.9157C109.461 38.1421 108.811 37.706 107.807 37.718C106.839 37.7297 106.257 38.1902 105.914 39.0102C105.787 39.3138 105.704 39.6463 105.658 39.9813C105.641 40.1051 105.631 40.2128 105.626 40.299L105.616 40.5251Z" fill="#7D4556"/>
<path d="M116.992 39.3399L125.879 39.2327" stroke="#7D4556" stroke-width="1.383"/>
<path d="M102.322 27.2319C102.455 26.9635 102.779 26.8531 103.047 26.9853C104.058 27.4828 105.28 27.864 106.667 28.1382C108.767 28.5533 110.968 28.6876 112.876 28.657L113.662 28.6335C113.961 28.6168 114.217 28.8453 114.233 29.1439C114.25 29.4426 114.022 29.6982 113.723 29.715L113.38 29.7287C111.294 29.793 108.826 29.669 106.457 29.2008C104.983 28.9095 103.673 28.5009 102.569 27.957C102.301 27.8249 102.19 27.5002 102.322 27.2319Z" fill="#7D4556"/>
<path d="M98.7887 63.4345C99.0448 63.4418 99.252 63.6347 99.2849 63.8807L99.2886 63.9958L99.2874 64.372C99.2892 64.5607 99.2947 64.7725 99.305 65.0011C99.3302 65.561 99.3805 66.1117 99.4613 66.6234C99.6322 67.7074 99.9246 68.4827 100.289 68.793L100.368 68.8523C100.606 69.0075 100.674 69.3268 100.519 69.5654C100.364 69.8041 100.044 69.8718 99.8058 69.7166C99.0791 69.2442 98.6693 68.2187 98.443 66.7841C98.3557 66.2308 98.302 65.6431 98.2752 65.0475L98.2598 64.5888C98.2583 64.5168 98.2572 64.4472 98.2565 64.3802L98.2589 63.9352C98.2669 63.6506 98.5042 63.4264 98.7887 63.4345Z" fill="#9B6160"/>
<path d="M96.8651 65.0638C97.1492 65.0822 97.3646 65.3273 97.3463 65.6114L97.3322 65.9069C97.3069 66.5676 97.3111 67.2831 97.3645 67.9498C97.4033 68.4337 97.4662 68.8543 97.5545 69.1901C97.6268 69.4655 97.4623 69.7473 97.187 69.8197C96.9117 69.8921 96.6298 69.7275 96.5575 69.4522C96.4517 69.0496 96.3802 68.5718 96.337 68.0321C96.2798 67.3188 96.2754 66.5654 96.3021 65.8676L96.3176 65.545C96.3359 65.2609 96.5811 65.0455 96.8651 65.0638Z" fill="#9B6160"/>
<path d="M101.006 65.7372C101.284 65.6743 101.56 65.8483 101.623 66.1259L101.656 66.2655C101.678 66.3511 101.707 66.4592 101.743 66.5846C101.842 66.9331 101.958 67.2812 102.087 67.603C102.318 68.1798 102.569 68.5974 102.78 68.7661L102.842 68.8091C103.088 68.9526 103.171 69.2682 103.028 69.5141C102.884 69.76 102.568 69.8431 102.323 69.6996C101.84 69.4182 101.466 68.8233 101.13 67.9872C100.986 67.6286 100.86 67.2477 100.751 66.8672L100.683 66.6184C100.654 66.5073 100.632 66.4174 100.617 66.3539C100.554 66.0763 100.728 65.8002 101.006 65.7372Z" fill="#9B6160"/>
<path d="M95.3326 64.5595C95.5827 64.6152 95.7496 64.8438 95.7353 65.0916L95.7238 65.1746L95.0475 68.2138C94.9857 68.4917 94.7103 68.6668 94.4325 68.605C94.1824 68.5493 94.0155 68.3207 94.0297 68.073L94.0413 67.9899L94.7175 64.9507C94.7732 64.7006 95.0018 64.5338 95.2495 64.548L95.3326 64.5595Z" fill="#9B6160"/>
<path d="M112.994 65.6445C113.243 65.5065 113.557 65.5966 113.694 65.8456C113.832 66.0946 113.742 66.4083 113.493 66.5463C113.085 66.7727 112.671 66.9874 112.252 67.1906C106.728 69.8712 100.905 70.4141 95.7391 69.7435C95.4335 69.7038 95.1534 69.6619 94.9006 69.6194L94.5496 69.5569L94.2615 69.4983C93.984 69.4349 93.8103 69.1586 93.8737 68.881C93.937 68.6035 94.2133 68.4299 94.4908 68.4932L94.8416 68.5625C95.1374 68.6164 95.4821 68.6705 95.8718 68.7211C100.855 69.3681 106.485 68.8432 111.802 66.2632C112.204 66.068 112.602 65.8619 112.994 65.6445Z" fill="#9B6160"/>
<path d="M103.64 48.783C103.741 48.5167 104.038 48.3823 104.304 48.4828L104.528 48.5723C104.701 48.6435 104.892 48.7268 105.099 48.8216C105.688 49.0925 106.277 49.4023 106.83 49.7476C108.758 50.9516 109.823 52.2908 109.432 53.7919C109.36 54.0674 109.079 54.2325 108.803 54.1608C108.528 54.089 108.363 53.8075 108.434 53.532C108.671 52.6242 107.863 51.6077 106.284 50.6221C105.772 50.3022 105.22 50.0121 104.668 49.7582L104.287 49.5888C104.139 49.5254 104.021 49.4778 103.94 49.4473C103.674 49.3468 103.54 49.0493 103.64 48.783Z" fill="#9B6160"/>
<path fill-rule="evenodd" clip-rule="evenodd" d="M128.459 82.0017L126.722 76.9915L92.9328 77.9124L91.5748 82.6588C91.5748 82.6588 69.7426 82.865 65.0983 92.1529C60.0622 102.226 70.456 160.106 70.6924 172.855C64.9443 188.081 73.2998 192.724 73.2998 192.724L141.827 191.902C141.827 191.902 151.048 186.705 144.331 176.241C147.083 157.523 163.159 94.9254 154.366 89.5729C142.498 82.3482 128.459 82.0017 128.459 82.0017Z" fill="#ADC6FF"/>
<path d="M65.6788 106.607C65.9612 106.642 66.1616 106.9 66.1263 107.182C65.316 113.665 65.4717 122.866 66.4098 134.074C66.9032 139.97 67.598 146.231 68.4425 152.666C69.0073 156.97 69.6089 161.124 70.2137 165.003L70.65 167.751C70.7598 168.429 70.865 169.069 70.9647 169.667L71.2822 171.532C71.2998 171.631 71.2877 171.734 71.2473 171.827L71.107 172.167C71.0483 172.315 70.9783 172.497 70.8994 172.709C70.635 173.42 70.3703 174.214 70.1232 175.071C69.3941 177.599 68.9683 180.129 68.9983 182.477C69.034 185.277 69.7211 187.614 71.1706 189.353C71.3528 189.572 71.3233 189.897 71.1046 190.079C70.8859 190.261 70.5609 190.232 70.3786 190.013C68.7594 188.07 68.006 185.508 67.9675 182.491C67.936 180.028 68.3779 177.402 69.1328 174.785C69.3873 173.902 69.6601 173.084 69.9332 172.349L70.0716 171.985L70.2403 171.56L70.022 170.279C69.8274 169.121 69.6105 167.795 69.377 166.32L69.0135 163.988C68.4689 160.441 67.9298 156.682 67.4204 152.8C66.5739 146.351 65.8774 140.073 65.3825 134.16L65.2587 132.636C64.4267 122.05 64.3195 113.326 65.1034 107.054C65.1352 106.8 65.347 106.613 65.595 106.603L65.6788 106.607Z" fill="#597EF7"/>
<path d="M125.751 82.6755C126.025 82.5991 126.309 82.7595 126.385 83.0338C126.462 83.308 126.301 83.5923 126.027 83.6686C122.96 84.5232 119.423 85.0847 115.507 85.3875C109.666 85.8392 103.421 85.6981 97.4094 85.1894C96.2038 85.0873 95.1076 84.978 94.1416 84.8686L92.935 84.722C92.6529 84.6836 92.4554 84.4237 92.4939 84.1417C92.5323 83.8596 92.7921 83.6621 93.0742 83.7005L93.7865 83.7896C93.9333 83.807 94.0904 83.8253 94.2576 83.8442L95.1089 83.9369C95.844 84.0139 96.6423 84.0898 97.4963 84.1621C103.458 84.6666 109.649 84.8064 115.428 84.3596C119.282 84.0616 122.754 83.5103 125.751 82.6755Z" fill="#597EF7"/>
<path fill-rule="evenodd" clip-rule="evenodd" d="M163.788 342.153C159.439 306.443 154.582 269.57 150.046 240.329C150.046 240.329 143.167 219.621 124.244 225.84C105.696 231.935 108.937 255.955 108.937 255.955L129.922 349.311C129.922 349.311 133.508 364.48 150.376 360.603C165.762 357.068 163.788 342.153 163.788 342.153Z" fill="#597EF7"/>
<path fill-rule="evenodd" clip-rule="evenodd" d="M66.4417 338.287C66.5999 302.313 67.1291 265.127 68.2259 235.556C68.2259 235.556 72.6476 214.188 92.1652 218.158C111.297 222.049 110.877 246.284 110.877 246.284L100.911 341.452C100.911 341.452 99.1159 356.933 81.9116 355.048C66.2192 353.33 66.4417 338.287 66.4417 338.287Z" fill="#597EF7"/>
<path fill-rule="evenodd" clip-rule="evenodd" d="M150.094 240.732C147.9 217.511 144.49 206.683 141.887 202.32C85.9233 203.92 71.982 203.185 71.982 203.185C71.982 203.185 68.5664 216.737 67.8764 243.997C67.8764 243.997 86.0635 268.082 108.298 268.082C128.344 268.082 150.094 240.732 150.094 240.732Z" fill="#597EF7"/>
<path fill-rule="evenodd" clip-rule="evenodd" d="M141.887 202.32L140.829 191.788L72.3013 192.61L71.9824 203.159C71.9824 203.159 108.249 204.555 141.887 202.32Z" fill="#597EF7"/>
<path d="M102.375 203.891C102.637 203.897 102.85 204.092 102.886 204.344L102.891 204.448L102.868 205.69C102.852 206.712 102.835 207.885 102.819 209.192C102.71 218.208 102.711 227.847 102.889 237.038L102.942 239.532C103.218 251.419 103.783 260.872 104.691 266.971C104.734 267.259 104.536 267.528 104.248 267.57C103.96 267.613 103.692 267.415 103.649 267.127L103.538 266.356C102.686 260.193 102.154 250.998 101.888 239.556C101.676 230.444 101.649 220.787 101.738 211.656L101.802 206.468L101.837 204.408C101.843 204.117 102.084 203.885 102.375 203.891Z" fill="#253368"/>
<path d="M112.158 204.116C112.449 204.118 112.684 204.355 112.682 204.646L112.683 207.977C112.688 209.556 112.7 211.351 112.72 213.307C112.772 218.336 112.873 223.304 113.033 227.948L113.108 229.977C113.325 235.508 113.623 240.167 114.012 243.708L114.107 244.536L114.109 244.641C113.805 248.49 111.651 250.84 108.305 251.947C106.596 252.512 104.824 252.687 103.269 252.634L102.914 252.618C102.769 252.61 102.666 252.602 102.608 252.596C102.318 252.566 102.108 252.307 102.137 252.018C102.167 251.728 102.426 251.517 102.715 251.547L102.973 251.566C104.489 251.652 106.28 251.506 107.974 250.946C110.856 249.993 112.681 248.066 113.03 244.853L113.053 244.602L113.012 244.25C112.612 240.769 112.306 236.168 112.081 230.683L111.979 227.984C111.835 223.796 111.739 219.347 111.683 214.827L111.645 211.048C111.635 209.591 111.629 208.251 111.627 207.057L111.628 204.641C111.629 204.35 111.866 204.115 112.158 204.116Z" fill="#253368"/>
<path d="M135.763 204.338C136.054 204.333 136.294 204.565 136.299 204.857L136.306 205.111C136.311 205.255 136.32 205.439 136.332 205.659C136.369 206.306 136.427 207.027 136.513 207.804C136.757 210.022 137.169 212.239 137.786 214.303C139.2 219.033 141.459 222.215 144.696 223.196C144.975 223.28 145.132 223.575 145.048 223.853C144.964 224.132 144.669 224.289 144.391 224.205C140.736 223.098 138.281 219.64 136.776 214.605C136.139 212.474 135.716 210.196 135.465 207.919C135.377 207.123 135.317 206.383 135.28 205.719L135.245 204.873C135.24 204.582 135.472 204.342 135.763 204.338Z" fill="#253368"/>
<path d="M78.1101 205.557C78.3721 205.555 78.5909 205.745 78.6336 205.995L78.6411 206.08L78.6368 206.678C78.6254 207.344 78.5912 208.214 78.5211 209.232C78.3716 211.405 78.0982 213.57 77.6695 215.595C76.5452 220.909 74.5605 224.423 71.4042 225.242C71.1224 225.315 70.8347 225.146 70.7616 224.864C70.6886 224.582 70.8578 224.294 71.1396 224.221C73.7795 223.537 75.59 220.331 76.6381 215.377C77.0555 213.405 77.323 211.287 77.4694 209.16L77.5071 208.569C77.5517 207.807 77.5748 207.15 77.5833 206.629L77.5869 206.088C77.5848 205.797 77.819 205.559 78.1101 205.557Z" fill="#253368"/>
<path d="M90.1538 262.944C90.284 262.684 90.6006 262.578 90.861 262.708L91.2866 262.913L91.7324 263.121C91.9678 263.228 92.222 263.342 92.4935 263.462C93.7881 264.03 95.2095 264.599 96.7126 265.129C99.5993 266.148 102.432 266.902 105.077 267.28C107.447 267.619 109.584 267.641 111.429 267.306C111.715 267.254 111.989 267.444 112.041 267.73C112.093 268.017 111.903 268.291 111.617 268.343C109.649 268.701 107.402 268.677 104.928 268.323C102.206 267.935 99.309 267.164 96.3618 266.123C94.8325 265.584 93.3871 265.005 92.0697 264.427L91.2927 264.079L90.446 263.679C90.4243 263.669 90.4055 263.659 90.3895 263.651C90.1291 263.521 90.0236 263.205 90.1538 262.944Z" fill="#253368"/>
<path d="M141.827 191.844C142.118 191.844 142.354 192.08 142.354 192.372C142.354 192.634 142.163 192.851 141.913 192.892L141.827 192.899H72.6511C72.36 192.899 72.124 192.663 72.124 192.372C72.124 192.11 72.3152 191.892 72.5656 191.851L72.6511 191.844H141.827Z" fill="#253368"/>
<path d="M141.888 202.841C142.179 202.841 142.415 203.077 142.415 203.368C142.415 203.63 142.224 203.847 141.973 203.888L141.888 203.895H72.6511C72.36 203.895 72.124 203.659 72.124 203.368C72.124 203.106 72.3152 202.889 72.5656 202.848L72.6511 202.841H141.888Z" fill="#253368"/>
<path d="M55.3281 93.5198C55.4285 93.2534 55.7258 93.1189 55.9922 93.2193C56.2319 93.3097 56.3649 93.5596 56.3158 93.8029L56.2927 93.8835L44.4254 125.361C44.325 125.627 44.0276 125.762 43.7613 125.662C43.5216 125.571 43.3886 125.321 43.4376 125.078L43.4608 124.997L55.3281 93.5198Z" fill="#597EF7"/>
<path fill-rule="evenodd" clip-rule="evenodd" d="M184.002 139.584C184.002 139.584 199.577 129.463 208.707 142.389C218.122 155.718 203.645 166.129 203.645 166.129C203.645 166.129 193.272 173.2 180.526 181.97C172.745 187.324 164.031 193.062 157.09 196.308C149.576 199.823 146.234 196.499 141.67 190.036C136.249 182.361 134.778 178.652 140.783 173.012C146.511 167.636 155.118 161.472 161.567 156.39C173.861 146.7 184.002 139.584 184.002 139.584Z" fill="#ADC6FF"/>
<path fill-rule="evenodd" clip-rule="evenodd" d="M140.247 201.771L129.665 186.841L139.072 178.688L151.177 195.769L140.247 201.771Z" fill="#ADC6FF"/>
<path fill-rule="evenodd" clip-rule="evenodd" d="M132.021 180.991C132.021 180.991 138.753 170.891 141.677 170.576C146.207 170.088 145.039 179.327 145.039 179.327C145.039 179.327 149.359 181.012 147.796 185.916C150.292 189.814 148.384 192.351 148.384 192.351C148.384 192.351 151.543 195.043 148.589 198.408C145.635 201.774 137.49 202.722 137.496 196.925C133.638 194.533 135.625 190.911 135.625 190.911C135.625 190.911 132.677 188.481 134.693 185.006C132.079 184.183 131.33 182.051 132.021 180.991Z" fill="#F5D8CF"/>
<path d="M141.778 177.881C141.989 177.69 142.315 177.706 142.506 177.917C142.676 178.104 142.683 178.382 142.534 178.576L142.471 178.645L135.039 185.388C134.828 185.58 134.502 185.564 134.311 185.353C134.141 185.166 134.135 184.887 134.284 184.693L134.347 184.625L141.778 177.881Z" fill="#9B6160"/>
<path d="M141.603 170.065C144.02 169.714 145.235 171.65 145.58 174.88C145.712 176.117 145.706 177.428 145.616 178.667L145.584 179.063L145.835 179.241C146.226 179.528 146.617 179.864 146.984 180.247C148.463 181.797 149.113 183.632 148.442 185.663L148.377 185.847L148.385 185.858C149.923 188.115 150.079 190.119 149.357 191.74L149.276 191.912C149.197 192.073 149.117 192.213 149.04 192.333L148.94 192.478L149.76 196.179C149.816 196.429 149.679 196.677 149.449 196.769L149.369 196.794C149.119 196.849 148.871 196.713 148.779 196.482L148.754 196.402L147.881 192.462C147.845 192.297 147.891 192.124 148.007 192C148.082 191.919 148.214 191.735 148.351 191.456C149.026 190.086 148.907 188.341 147.378 186.218C147.273 186.072 147.251 185.882 147.321 185.716C148.072 183.938 147.57 182.354 146.238 180.959C145.916 180.622 145.571 180.325 145.225 180.072L145.038 179.938C144.925 179.861 144.837 179.805 144.782 179.774C144.603 179.671 144.503 179.471 144.527 179.266L144.565 178.881C144.573 178.795 144.58 178.698 144.588 178.592C144.674 177.41 144.68 176.156 144.555 174.99C144.264 172.268 143.374 170.85 141.751 171.085C141.469 171.126 141.208 170.931 141.167 170.649C141.126 170.367 141.321 170.106 141.603 170.065Z" fill="#9B6160"/>
<path d="M143.076 186.404C143.328 186.271 143.64 186.368 143.772 186.62C143.89 186.843 143.827 187.115 143.635 187.265L143.557 187.316L135.865 191.368C135.613 191.501 135.301 191.404 135.169 191.152C135.051 190.928 135.114 190.657 135.306 190.507L135.385 190.456L143.076 186.404Z" fill="#9B6160"/>
<path d="M144.882 193.334C145.146 193.226 145.447 193.352 145.555 193.615C145.652 193.852 145.56 194.12 145.349 194.25L145.274 194.288L137.691 197.403C137.428 197.511 137.127 197.385 137.018 197.122C136.921 196.885 137.013 196.617 137.225 196.487L137.299 196.449L144.882 193.334Z" fill="#9B6160"/>
<path d="M149.826 92.36C149.996 92.1323 150.319 92.0861 150.547 92.2569C150.775 92.4277 150.821 92.7508 150.65 92.9786L150.543 93.1286C150.511 93.1752 150.473 93.2306 150.43 93.2947L150.202 93.6457C150.083 93.8337 149.957 94.0402 149.825 94.2652C149.193 95.3414 148.561 96.6072 147.97 98.0531C144.41 106.762 143.965 117.258 148.654 129.117C148.759 129.382 148.629 129.682 148.364 129.786C148.1 129.891 147.8 129.761 147.696 129.496C142.903 117.376 143.359 106.607 147.015 97.663C147.625 96.1704 148.28 94.8608 148.935 93.7434L149.204 93.2969C149.291 93.1563 149.375 93.0241 149.455 92.9003L149.699 92.5365C149.754 92.4576 149.797 92.3987 149.826 92.36Z" fill="#597EF7"/>
<path d="M184.36 137.505C184.582 137.326 184.906 137.361 185.085 137.582C185.244 137.779 185.234 138.058 185.074 138.243L185.007 138.307L150.624 166.025C150.403 166.204 150.078 166.169 149.9 165.947C149.741 165.75 149.751 165.472 149.911 165.287L149.978 165.223L184.36 137.505Z" fill="#597EF7"/>
</g>
<defs>
<clipPath id="clip0">
<rect width="219" height="320" fill="white"/>
</clipPath>
</defs>
</svg>
