<svg width="50" height="50" viewBox="0 0 50 50" fill="none" xmlns="http://www.w3.org/2000/svg">
<path d="M23.7469 0.0075197C19.7344 0.0559572 11.1078 0.715332 6.28283 5.14189C2.69376 8.69814 1.44064 13.956 1.29376 20.4575C1.17189 26.9356 1.02501 39.1013 12.7516 42.4138V47.4591C12.7516 47.4591 12.6781 49.4778 14.0125 49.8919C15.6563 50.4122 16.5922 48.8591 18.1547 47.1903L21.0688 43.895C29.0922 44.5622 35.2375 43.0247 35.9453 42.7966C37.5734 42.2763 46.7438 41.1044 48.2422 28.9372C49.7797 16.3716 47.4938 8.4544 43.3672 4.87314H43.3422C42.0969 3.72627 37.0922 0.0793947 25.911 0.0387697C25.911 0.0387697 25.0813 -0.0174803 23.7469 0.0059572V0.0075197ZM23.8844 3.54033C25.0235 3.53252 25.7156 3.58096 25.7156 3.58096C35.1797 3.60596 39.6969 6.45439 40.7625 7.41377C44.2375 10.3919 46.0281 17.5294 44.7172 28.02C43.4719 38.1919 36.0344 38.8356 34.6578 39.2747C34.0719 39.4622 28.6594 40.7966 21.8406 40.3575C21.8406 40.3575 16.7625 46.4856 15.175 48.0638C14.9235 48.3403 14.6297 48.4216 14.4422 48.381C14.1735 48.3153 14.0922 47.9825 14.1078 47.5263L14.1563 39.1528C4.21095 36.4028 4.79689 26.0263 4.90314 20.606C5.02501 15.1856 6.0422 10.7513 9.07033 7.74814C13.1469 4.06221 20.4719 3.56533 23.8813 3.54033H23.8844ZM24.6344 8.95908C24.5525 8.95826 24.4713 8.97364 24.3954 9.00435C24.3196 9.03505 24.2505 9.08047 24.1923 9.13799C24.134 9.19551 24.0877 9.26399 24.0561 9.33948C24.0244 9.41497 24.008 9.49597 24.0078 9.57783C24.0078 9.92783 24.2922 10.2044 24.6344 10.2044C26.1836 10.1749 27.7233 10.4525 29.1648 11.021C30.6062 11.5895 31.9208 12.4378 33.0328 13.5169C35.3031 15.7216 36.4094 18.6841 36.4516 22.5575C36.4516 22.8997 36.7281 23.1841 37.0781 23.1841V23.1591C37.2431 23.1595 37.4015 23.0947 37.5189 22.9788C37.6363 22.8629 37.7031 22.7053 37.7047 22.5403C37.7806 20.7171 37.4849 18.8975 36.8357 17.1922C36.1865 15.4868 35.1972 13.9312 33.9281 12.62C31.4547 10.2028 28.3203 8.95752 24.6344 8.95752V8.95908ZM16.3985 10.3919C15.9562 10.3273 15.5051 10.4161 15.1203 10.6435H15.0875C14.1942 11.1671 13.3894 11.829 12.7031 12.6044C12.1328 13.2638 11.8235 13.931 11.7422 14.5731C11.6938 14.956 11.7266 15.3388 11.8406 15.7044L11.8813 15.7294C12.5235 17.6169 13.3625 19.4325 14.3875 21.1419C15.7079 23.5434 17.3328 25.7644 19.2219 27.7497L19.2781 27.831L19.3672 27.8966L19.4235 27.9622L19.4891 28.0185C21.4816 29.9131 23.708 31.5456 26.1141 32.8763C28.8641 34.3731 30.5328 35.081 31.5344 35.3747V35.3903C31.8281 35.4794 32.0953 35.52 32.3641 35.52C33.2177 35.4575 34.0257 35.1109 34.6594 34.5356C35.4313 33.8492 36.0858 33.0411 36.5969 32.1435V32.1278C37.0766 31.2247 36.9141 30.37 36.2219 29.7919C34.8357 28.5802 33.3366 27.5039 31.7453 26.5778C30.6797 25.9997 29.5969 26.3497 29.1578 26.9356L28.2219 28.1153C27.7422 28.7013 26.8703 28.62 26.8703 28.62L26.8453 28.6356C20.3438 26.9747 18.6094 20.3919 18.6094 20.3919C18.6094 20.3919 18.5281 19.4966 19.1297 19.0403L20.3016 18.0966C20.8625 17.6403 21.2531 16.5591 20.6516 15.4919C19.7319 13.8984 18.658 12.399 17.4453 11.0153C17.1802 10.6891 16.8083 10.4672 16.3953 10.3888L16.3985 10.3919ZM25.7156 12.2481C24.886 12.2481 24.886 13.5013 25.7235 13.5013C26.7551 13.518 27.7734 13.7379 28.7201 14.1484C29.6668 14.5588 30.5233 15.1518 31.2406 15.8935C31.8951 16.6153 32.3979 17.4612 32.7195 18.381C33.041 19.3008 33.1747 20.2758 33.1125 21.2481C33.1154 21.4127 33.1825 21.5696 33.2997 21.6853C33.4168 21.8009 33.5745 21.8661 33.7391 21.8669L33.7641 21.8997C33.9299 21.8985 34.0885 21.8321 34.2058 21.7148C34.323 21.5976 34.3894 21.4389 34.3906 21.2731C34.4469 18.7903 33.675 16.7075 32.161 15.0388C30.6391 13.37 28.5156 12.4341 25.8047 12.2481H25.7156ZM26.7422 15.6169C25.8875 15.5919 25.8547 16.87 26.7016 16.895C28.761 17.0013 29.761 18.0419 29.8922 20.1825C29.8951 20.345 29.9614 20.4999 30.0771 20.6141C30.1927 20.7283 30.3484 20.7927 30.511 20.7935H30.5359C30.6195 20.7899 30.7015 20.7697 30.7772 20.7341C30.8528 20.6985 30.9206 20.6481 30.9766 20.586C31.0326 20.5239 31.0757 20.4513 31.1033 20.3723C31.131 20.2934 31.1426 20.2097 31.1375 20.1263C30.9906 17.3356 29.4688 15.7638 26.7672 15.6185H26.7422V15.6169Z" fill="white"/>
</svg>
