<svg width="50" height="50" viewBox="0 0 50 50" fill="none" xmlns="http://www.w3.org/2000/svg">
<path d="M34.8389 29.292C34.3066 29.0186 31.6553 27.7197 31.1621 27.5439C30.6689 27.3584 30.3076 27.2705 29.9512 27.8174C29.5898 28.3594 28.5645 29.5654 28.2422 29.9316C27.9297 30.293 27.6123 30.3369 27.0801 30.0684C23.916 28.4863 21.8408 27.2461 19.7559 23.667C19.2041 22.7148 20.3076 22.7832 21.3379 20.7275C21.5137 20.3662 21.4258 20.0586 21.2891 19.7852C21.1523 19.5117 20.0781 16.8652 19.6289 15.7861C19.1943 14.7363 18.7451 14.8828 18.418 14.8633C18.1055 14.8437 17.749 14.8438 17.3877 14.8438C17.0264 14.8438 16.4453 14.9805 15.9521 15.5127C15.459 16.0547 14.0674 17.3584 14.0674 20.0049C14.0674 22.6514 15.9961 25.2148 16.2598 25.5762C16.5332 25.9375 20.0537 31.3672 25.459 33.7061C28.877 35.1807 30.2148 35.3076 31.9238 35.0537C32.9639 34.8975 35.1074 33.7549 35.5518 32.4902C35.9961 31.2305 35.9961 30.1514 35.8643 29.9268C35.7324 29.6875 35.3711 29.5508 34.8389 29.292Z" fill="white"/>
<path d="M45.1757 16.5234C44.0722 13.9014 42.4901 11.5479 40.4735 9.52637C38.4569 7.50977 36.1034 5.92285 33.4765 4.82422C30.7909 3.69629 27.9394 3.125 24.9999 3.125H24.9023C21.9433 3.13965 19.0771 3.72559 16.3817 4.87793C13.7792 5.99121 11.4452 7.57324 9.44815 9.58984C7.45108 11.6064 5.8837 13.9502 4.79972 16.5625C3.67667 19.2676 3.11026 22.1436 3.12491 25.1025C3.13956 28.4912 3.95011 31.8555 5.46866 34.8633V42.2852C5.46866 43.5254 6.47452 44.5312 7.71475 44.5312H15.1415C18.1493 46.0498 21.5136 46.8604 24.9023 46.875H25.0048C27.9296 46.875 30.7665 46.3086 33.4374 45.2002C36.0497 44.1113 38.3983 42.5488 40.4101 40.5518C42.4267 38.5547 44.0136 36.2207 45.122 33.6182C46.2743 30.9229 46.8603 28.0566 46.8749 25.0977C46.8896 22.124 46.3134 19.2383 45.1757 16.5234ZM37.7978 37.9102C34.3749 41.2988 29.8339 43.1641 24.9999 43.1641H24.9169C21.9726 43.1494 19.0478 42.417 16.4648 41.04L16.0546 40.8203H9.1796V33.9453L8.95987 33.5352C7.58292 30.9521 6.8505 28.0273 6.83585 25.083C6.81632 20.2148 8.67667 15.6445 12.0898 12.2021C15.498 8.75977 20.0536 6.85547 24.9218 6.83594H25.0048C27.4462 6.83594 29.8144 7.30957 32.0458 8.24707C34.2235 9.16016 36.1767 10.4736 37.8564 12.1533C39.5312 13.8281 40.8495 15.7861 41.7626 17.9639C42.7099 20.2197 43.1835 22.6123 43.1737 25.083C43.1444 29.9463 41.2353 34.502 37.7978 37.9102Z" fill="white"/>
</svg>
